<?xml version="1.0" encoding="utf-8"?>
<!-- Generator: Adobe Illustrator 25.4.1, SVG Export Plug-In . SVG Version: 6.00 Build 0)  -->
<svg version="1.1" id="Layer_1" xmlns="http://www.w3.org/2000/svg" xmlns:xlink="http://www.w3.org/1999/xlink" x="0px" y="0px"
	 viewBox="0 0 7.4 13.6" style="enable-background:new 0 0 7.4 13.6;" xml:space="preserve">
<style type="text/css">
	.st0{fill-rule:evenodd;clip-rule:evenodd;fill:#346CCF;}
</style>
<path class="st0" d="M2.4,6.8l4.7-5c0.4-0.4,0.4-1,0-1.3L7.1,0.3c-0.4-0.4-1-0.4-1.3-0.1c0,0,0,0-0.1,0.1L0.3,6.1
	C0.1,6.3,0,6.5,0,6.8c0,0.3,0.1,0.5,0.3,0.7l5.4,5.8c0,0,0,0,0.1,0.1c0.4,0.4,1,0.3,1.3-0.1l0.1-0.1c0.3-0.4,0.3-1,0-1.3L2.4,6.8z"
	/>
</svg>
