<?xml version="1.0" encoding="utf-8"?>
<!-- Generator: Adobe Illustrator 25.4.1, SVG Export Plug-In . SVG Version: 6.00 Build 0)  -->
<svg version="1.1" id="Layer_1" xmlns="http://www.w3.org/2000/svg" xmlns:xlink="http://www.w3.org/1999/xlink" x="0px" y="0px"
	 viewBox="0 0 29.8 25.1" style="enable-background:new 0 0 29.8 25.1;" xml:space="preserve">
<style type="text/css">
	.st0{fill:#8C929C;}
</style>
<path class="st0" d="M29.2,11.8c-0.4-0.4-0.9-0.6-1.4-0.6l-22.3,0V5.1C5.5,3.4,6.9,2,8.6,2h0.8c0.6,0,1.1,0.2,1.6,0.6
	C10.4,2.8,10,3.1,9.6,3.5c-0.8,0.8-1.2,1.9-1.2,3l0,0.4l0.3,0.3c0.3,0.3,0.6,0.4,0.9,0.6c0.8,0.3,1.9,0.5,3.1,0.5s2.3-0.2,3.1-0.5
	c0.3-0.1,0.6-0.3,0.9-0.5l0.3-0.3V6.5c0-1.1-0.4-2.2-1.2-3c-0.7-0.7-1.5-1.1-2.5-1.2C12.4,0.9,11,0,9.4,0H8.6C5.8,0,3.5,2.3,3.5,5.1
	v6.2l-1.8,0l-0.3,0c-0.5,0.1-0.9,0.5-1.2,0.9c-0.3,0.5-0.3,1-0.2,1.5l0.8,3c0.4,1.6,1.4,3,2.7,4C4,21,4.4,21.3,4.9,21.5l-1,2.2
	c-0.2,0.5,0,1.1,0.5,1.3c0.5,0.2,1.1,0,1.3-0.5l1.1-2.4c0.4,0.1,0.9,0.1,1.3,0.1h13.6c0.4,0,0.9,0,1.3-0.1l1.1,2.4
	c0.2,0.5,0.8,0.7,1.3,0.5c0.5-0.2,0.7-0.8,0.5-1.3l-1-2.2c0.5-0.2,0.9-0.5,1.3-0.8c1.3-1,2.2-2.4,2.7-4l0.8-3.2l0-0.3
	C29.8,12.7,29.6,12.2,29.2,11.8z M14.8,6c-1.1,0.4-3.3,0.4-4.3,0c0.1-0.4,0.3-0.8,0.6-1c0.8-0.8,2.3-0.8,3.2,0
	C14.5,5.2,14.7,5.6,14.8,6z M27,16.2c-0.3,1.2-1,2.2-2,2.9c-1,0.7-2.1,1.1-3.3,1.1H8.1c-1.2,0-2.4-0.4-3.3-1.1c-1-0.7-1.6-1.7-2-2.9
	L2,13.3l25.7,0L27,16.2z"/>
</svg>
