<?xml version="1.0" encoding="utf-8"?>
<!-- Generator: Adobe Illustrator 25.4.1, SVG Export Plug-In . SVG Version: 6.00 Build 0)  -->
<svg version="1.1" id="Layer_1" xmlns="http://www.w3.org/2000/svg" xmlns:xlink="http://www.w3.org/1999/xlink" x="0px" y="0px"
	 viewBox="0 0 32 19" style="enable-background:new 0 0 32 19;" xml:space="preserve">
<style type="text/css">
	.st0{fill-rule:evenodd;clip-rule:evenodd;fill:#8C929C;}
</style>
<path class="st0" d="M31,14h-0.2c0.1-0.3,0.2-0.6,0.2-1v-1c0-1.3-0.8-2.4-2-2.8V3c0-0.8-0.3-1.6-0.9-2.1C27.6,0.3,26.8,0,26,0H7
	C6.2,0,5.4,0.3,4.9,0.9C4.3,1.4,4,2.2,4,3v6.2C2.8,9.6,2,10.7,2,12v1c0,0.4,0.1,0.7,0.2,1H1c-0.6,0-1,0.4-1,1s0.4,1,1,1h3v2
	c0,0.6,0.4,1,1,1s1-0.4,1-1v-2h21v2c0,0.6,0.4,1,1,1s1-0.4,1-1v-2h2c0.6,0,1-0.4,1-1S31.6,14,31,14z M6.3,2.3C6.5,2.1,6.7,2,7,2h19
	c0.3,0,0.5,0.1,0.7,0.3C26.9,2.5,27,2.7,27,3v6h-2.2C24.9,8.7,25,8.4,25,8V7c0-1.7-1.3-3-3-3h-2c-1.7,0-3,1.3-3,3v1
	c0,0.4,0.1,0.7,0.2,1h-1.4C15.9,8.7,16,8.4,16,8V7c0-1.7-1.3-3-3-3h-2C9.3,4,8,5.3,8,7v1c0,0.4,0.1,0.7,0.2,1H6V3
	C6,2.7,6.1,2.5,6.3,2.3z M19,8V7c0-0.6,0.4-1,1-1h2c0.6,0,1,0.4,1,1v1c0,0.6-0.4,1-1,1h-2C19.4,9,19,8.6,19,8z M10,8V7
	c0-0.6,0.4-1,1-1h2c0.6,0,1,0.4,1,1v1c0,0.6-0.4,1-1,1h-2C10.4,9,10,8.6,10,8z M4,13v-1c0-0.6,0.4-1,1-1h6h2h7h2h6c0.6,0,1,0.4,1,1
	v1c0,0.6-0.4,1-1,1H5C4.4,14,4,13.6,4,13z"/>
</svg>
