<?xml version="1.0" encoding="utf-8"?>
<!-- Generator: Adobe Illustrator 25.4.1, SVG Export Plug-In . SVG Version: 6.00 Build 0)  -->
<svg version="1.1" id="Layer_1" xmlns="http://www.w3.org/2000/svg" xmlns:xlink="http://www.w3.org/1999/xlink" x="0px" y="0px"
	 viewBox="0 0 9.1 15.5" style="enable-background:new 0 0 9.1 15.5;" xml:space="preserve">
<style type="text/css">
	.st0{fill-rule:evenodd;clip-rule:evenodd;fill:#346CCF;}
</style>
<g>
	<path class="st0" d="M1.7,5.2l2.9-2.9l2.9,2.9c0.4,0.4,1,0.4,1.4,0c0.4-0.4,0.4-1,0-1.4L5.3,0.3C5.1,0.1,4.8,0,4.6,0
		C4.3,0,4,0.1,3.8,0.3L0.3,3.8c-0.4,0.4-0.4,1,0,1.4C0.7,5.6,1.3,5.6,1.7,5.2z"/>
	<path class="st0" d="M7.4,10.3l-2.9,2.9l-2.9-2.9c-0.4-0.4-1-0.4-1.4,0c-0.4,0.4-0.4,1,0,1.4l3.5,3.5c0.2,0.2,0.5,0.3,0.7,0.3
		c0.3,0,0.5-0.1,0.7-0.3l3.5-3.5c0.4-0.4,0.4-1,0-1.4C8.5,9.9,7.8,9.9,7.4,10.3z"/>
</g>
</svg>
