<?xml version="1.0" encoding="utf-8"?>
<!-- Generator: Adobe Illustrator 25.4.1, SVG Export Plug-In . SVG Version: 6.00 Build 0)  -->
<svg version="1.1" id="Layer_1" xmlns="http://www.w3.org/2000/svg" xmlns:xlink="http://www.w3.org/1999/xlink" x="0px" y="0px"
	 viewBox="0 0 38.1 37.7" style="enable-background:new 0 0 38.1 37.7;" xml:space="preserve">
<style type="text/css">
	.st0{fill:#346CCF;}
	.st1{fill:#FFFFFF;}
</style>
<g>
	<path class="st0" d="M17.7,18.8c0-0.2-0.1-0.4-0.3-0.5c-0.1-0.1-0.3-0.2-0.5-0.2c-0.1,0-0.4,0.1-0.9,0.1l-1,0.2l0.3,1.6l0.9-0.2
		c0.6-0.1,1-0.2,1.1-0.3c0.1-0.1,0.2-0.2,0.3-0.3C17.7,19.2,17.7,19,17.7,18.8z"/>
	<path class="st0" d="M37.7,21.1l-3.7-3.4c-0.4-0.3-0.4-0.8-0.2-1.3l2.6-4.3c0.1-0.1,0.1-0.2,0.1-0.3c0.1-0.5-0.3-1.1-0.8-1.2
		l-4.9-0.8c-0.5-0.1-0.8-0.5-0.8-1l-0.1-5c0-0.1,0-0.2-0.1-0.4C29.6,3,29,2.8,28.5,3l-4.6,2c-0.4,0.2-0.9,0-1.2-0.4l-2.8-4.1
		c-0.1-0.1-0.2-0.2-0.3-0.3c-0.5-0.3-1.1-0.2-1.4,0.3l-2.8,4.1c-0.3,0.4-0.8,0.5-1.2,0.4L9.6,3c-0.1,0-0.2-0.1-0.4-0.1
		c-0.6,0-1,0.4-1,1l-0.1,5c0,0.5-0.4,0.9-0.8,1l-4.9,0.8c-0.1,0-0.2,0.1-0.3,0.1c-0.5,0.3-0.6,0.9-0.3,1.4l2.6,4.3
		c0.2,0.4,0.2,0.9-0.2,1.3l-3.7,3.4c-0.1,0.1-0.2,0.2-0.2,0.3c-0.2,0.5,0,1.1,0.5,1.3l4.5,2.2c0.4,0.2,0.6,0.7,0.5,1.2l-1.3,4.8
		c0,0.1,0,0.2,0,0.4c0.1,0.5,0.6,0.9,1.1,0.9l5-0.6c0.5-0.1,0.9,0.2,1.1,0.7L13,37c0,0.1,0.1,0.2,0.2,0.3c0.4,0.4,1,0.5,1.4,0.1
		l3.9-3.2c0.4-0.3,0.9-0.3,1.3,0l3.9,3.2c0.1,0.1,0.2,0.1,0.3,0.2c0.5,0.2,1.1-0.1,1.3-0.6l1.5-4.8c0.1-0.5,0.6-0.7,1.1-0.7l5,0.6
		c0.1,0,0.3,0,0.4,0c0.5-0.1,0.9-0.7,0.7-1.2l-1.3-4.8c-0.1-0.5,0.1-0.9,0.5-1.2l4.5-2.2c0.1-0.1,0.2-0.1,0.3-0.2
		C38.2,22.1,38.2,21.5,37.7,21.1z M10,22l0.5,2.7l-1.3,0.2L8,18.6l4.3-0.8l0.2,1.1l-3.1,0.5l0.3,1.5l2.6-0.5l0.2,1.1L10,22z
		 M18.7,23.2L17.6,22c-0.4-0.4-0.7-0.7-0.8-0.8S16.4,21,16.3,21c-0.1,0-0.4,0-0.7,0l-0.3,0l0.5,2.6L14.6,24l-1.1-6.3l2.7-0.5
		c0.7-0.1,1.2-0.1,1.5-0.1c0.3,0.1,0.6,0.2,0.8,0.5c0.2,0.3,0.4,0.6,0.5,1c0.1,0.5,0,0.9-0.2,1.3c-0.2,0.4-0.6,0.6-1.2,0.8
		c0.3,0.1,0.6,0.2,0.8,0.4c0.2,0.2,0.5,0.5,0.9,0.9l1,1.1L18.7,23.2z M21,22.8l-1.1-6.3l4.7-0.8l0.2,1.1l-3.4,0.6l0.2,1.4l3.2-0.6
		l0.2,1.1l-3.2,0.6l0.3,1.7l3.5-0.6l0.2,1.1L21,22.8z M26.9,21.8l-1.1-6.3l4.7-0.8l0.2,1.1l-3.4,0.6l0.2,1.4l3.2-0.6l0.2,1.1
		l-3.2,0.6l0.3,1.7l3.5-0.6l0.2,1.1L26.9,21.8z"/>
	<polygon class="st1" points="9.8,20.9 9.5,19.4 12.6,18.9 12.4,17.8 8,18.6 9.2,24.9 10.4,24.7 10,22 12.6,21.5 12.4,20.5 	"/>
	<path class="st1" d="M18.4,21c-0.2-0.2-0.5-0.3-0.8-0.4c0.5-0.2,0.9-0.4,1.2-0.8C19,19.4,19,19,19,18.5c-0.1-0.4-0.2-0.7-0.5-1
		c-0.2-0.3-0.5-0.4-0.8-0.5c-0.3-0.1-0.8,0-1.5,0.1l-2.7,0.5l1.1,6.3l1.3-0.2l-0.5-2.6l0.3,0c0.3-0.1,0.5-0.1,0.7,0
		c0.1,0,0.3,0.1,0.4,0.2s0.4,0.4,0.8,0.8l1.2,1.2l1.5-0.3l-1-1.1C18.9,21.4,18.6,21.1,18.4,21z M17.3,19.6c-0.1,0.1-0.5,0.2-1.1,0.3
		l-0.9,0.2l-0.3-1.6l1-0.2c0.5-0.1,0.8-0.1,0.9-0.1c0.2,0,0.4,0.1,0.5,0.2c0.1,0.1,0.2,0.3,0.3,0.5c0,0.2,0,0.4,0,0.5
		C17.5,19.5,17.4,19.6,17.3,19.6z"/>
	<polygon class="st1" points="22.1,21.6 21.8,19.8 24.9,19.3 24.8,18.2 21.6,18.8 21.3,17.4 24.7,16.7 24.6,15.7 19.9,16.5 21,22.8 
		25.8,22 25.6,20.9 	"/>
	<polygon class="st1" points="28,20.5 27.7,18.8 30.9,18.2 30.7,17.2 27.5,17.7 27.2,16.3 30.7,15.7 30.5,14.6 25.8,15.5 26.9,21.8 
		31.7,21 31.5,19.9 	"/>
</g>
</svg>
