<?xml version="1.0" encoding="UTF-8"?>
<svg width="26px" height="27px" viewBox="0 0 26 27" version="1.1" xmlns="http://www.w3.org/2000/svg" xmlns:xlink="http://www.w3.org/1999/xlink">
    <title>Group 31</title>
    <g id="Page-1" stroke="none" stroke-width="1" fill="none" fill-rule="evenodd">
        <g id="Listing" transform="translate(-1058.000000, -393.000000)" stroke="#8C929C" stroke-width="2">
            <g id="Group-36" transform="translate(410.000000, 251.000000)">
                <g id="Group-35" transform="translate(315.000000, 14.000000)">
                    <g id="Group-32" transform="translate(0.000000, 128.000000)">
                        <g id="Group-31" transform="translate(333.000000, 0.000000)">
                            <path d="M12.9026377,1.38434645 C13.0920705,1.38366542 13.2816965,1.436717 13.4476517,1.54358698 L13.4476517,1.54358698 L24.0828377,8.39231691 C24.6545239,8.76046506 25,9.39385374 25,10.0738229 L25,10.0738229 L25,26 L1,26 L1,10.0598563 C1,9.38498991 1.34034592,8.75563509 1.90510005,8.38617949 L1.90510005,8.38617949 L12.3587828,1.54750158 C12.5239653,1.43944112 12.7132049,1.38502748 12.9026377,1.38434645 Z" id="Rectangle"></path>
                            <path d="M18,11 C18.5522847,11 19.0522847,11.2238576 19.4142136,11.5857864 C19.7761424,11.9477153 20,12.4477153 20,13 L20,13 L20,26 L6,26 L6,13 C6,12.4477153 6.22385763,11.9477153 6.58578644,11.5857864 C6.94771525,11.2238576 7.44771525,11 8,11 L8,11 Z" id="Rectangle"></path>
                            <line x1="6.45793967" y1="14.7147409" x2="19.7497033" y2="14.7147409" id="Path"></line>
                            <line x1="6.45793967" y1="18.7147409" x2="19.7497033" y2="18.7147409" id="Path-Copy"></line>
                            <line x1="6.45793967" y1="22.7147409" x2="19.7497033" y2="22.7147409" id="Path-Copy-2"></line>
                        </g>
                    </g>
                </g>
            </g>
        </g>
    </g>
</svg>