<?xml version="1.0" encoding="utf-8"?>
<!-- Generator: Adobe Illustrator 25.4.1, SVG Export Plug-In . SVG Version: 6.00 Build 0)  -->
<svg version="1.1" id="Layer_1" xmlns="http://www.w3.org/2000/svg" xmlns:xlink="http://www.w3.org/1999/xlink" x="0px" y="0px"
	 viewBox="0 0 41 39.5" style="enable-background:new 0 0 41 39.5;" xml:space="preserve">
<style type="text/css">
	.st0{fill:#FFFFFF;}
	.st1{fill:#346CCF;}
</style>
<g>
	<path class="st0" d="M15,18.5c0.5,0,1,0.2,1.4,0.6c0.4,0.4,0.6,0.9,0.6,1.4v8h3V14.2c0-0.6-0.4-1-1-1H9c-0.6,0-1,0.4-1,1v4.3H15z
		 M17,15.5c0-0.6,0.4-1,1-1s1,0.4,1,1v1.9c0,0.6-0.4,1-1,1s-1-0.4-1-1V15.5z M13,15.5c0-0.6,0.4-1,1-1s1,0.4,1,1v1.9
		c0,0.6-0.4,1-1,1s-1-0.4-1-1V15.5z M9,15.5c0-0.6,0.4-1,1-1s1,0.4,1,1v1.9c0,0.6-0.4,1-1,1s-1-0.4-1-1V15.5z"/>
	<rect x="10" y="8.5" class="st0" width="8" height="2"/>
	<rect x="13" y="2" class="st0" width="2" height="4"/>
	<path class="st1" d="M10,18.4c0.6,0,1-0.4,1-1v-1.9c0-0.6-0.4-1-1-1s-1,0.4-1,1v1.9C9,18,9.4,18.4,10,18.4z"/>
	<path class="st1" d="M14,18.4c0.6,0,1-0.4,1-1v-1.9c0-0.6-0.4-1-1-1s-1,0.4-1,1v1.9C13,18,13.4,18.4,14,18.4z"/>
	<path class="st1" d="M18,18.4c0.6,0,1-0.4,1-1v-1.9c0-0.6-0.4-1-1-1s-1,0.4-1,1v1.9C17,18,17.4,18.4,18,18.4z"/>
	<path class="st0" d="M15,37.5v-7v-10H2v16c0,0.3,0.1,0.5,0.3,0.7c0.2,0.2,0.4,0.3,0.7,0.3H15z M11.5,22.5c0-0.6,0.4-1,1-1
		s1,0.4,1,1v1.9c0,0.6-0.4,1-1,1s-1-0.4-1-1V22.5z M11.5,27.5c0-0.6,0.4-1,1-1s1,0.4,1,1v1.9c0,0.6-0.4,1-1,1s-1-0.4-1-1V27.5z
		 M11.5,32.5c0-0.6,0.4-1,1-1s1,0.4,1,1v1.9c0,0.6-0.4,1-1,1s-1-0.4-1-1V32.5z M7.5,22.5c0-0.6,0.4-1,1-1s1,0.4,1,1v1.9
		c0,0.6-0.4,1-1,1s-1-0.4-1-1V22.5z M7.5,27.5c0-0.6,0.4-1,1-1s1,0.4,1,1v1.9c0,0.6-0.4,1-1,1s-1-0.4-1-1V27.5z M7.5,32.5
		c0-0.6,0.4-1,1-1s1,0.4,1,1v1.9c0,0.6-0.4,1-1,1s-1-0.4-1-1V32.5z M3.5,22.5c0-0.6,0.4-1,1-1s1,0.4,1,1v1.9c0,0.6-0.4,1-1,1
		s-1-0.4-1-1V22.5z M3.5,27.5c0-0.6,0.4-1,1-1s1,0.4,1,1v1.9c0,0.6-0.4,1-1,1s-1-0.4-1-1V27.5z M3.5,32.5c0-0.6,0.4-1,1-1s1,0.4,1,1
		v1.9c0,0.6-0.4,1-1,1s-1-0.4-1-1V32.5z"/>
	<path class="st1" d="M4.5,25.4c0.6,0,1-0.4,1-1v-1.9c0-0.6-0.4-1-1-1s-1,0.4-1,1v1.9C3.5,25,3.9,25.4,4.5,25.4z"/>
	<path class="st1" d="M8.5,25.4c0.6,0,1-0.4,1-1v-1.9c0-0.6-0.4-1-1-1s-1,0.4-1,1v1.9C7.5,25,7.9,25.4,8.5,25.4z"/>
	<path class="st1" d="M12.5,25.4c0.6,0,1-0.4,1-1v-1.9c0-0.6-0.4-1-1-1s-1,0.4-1,1v1.9C11.5,25,11.9,25.4,12.5,25.4z"/>
	<path class="st1" d="M4.5,30.4c0.6,0,1-0.4,1-1v-1.9c0-0.6-0.4-1-1-1s-1,0.4-1,1v1.9C3.5,30,3.9,30.4,4.5,30.4z"/>
	<path class="st1" d="M8.5,30.4c0.6,0,1-0.4,1-1v-1.9c0-0.6-0.4-1-1-1s-1,0.4-1,1v1.9C7.5,30,7.9,30.4,8.5,30.4z"/>
	<path class="st1" d="M12.5,30.4c0.6,0,1-0.4,1-1v-1.9c0-0.6-0.4-1-1-1s-1,0.4-1,1v1.9C11.5,30,11.9,30.4,12.5,30.4z"/>
	<path class="st1" d="M4.5,35.4c0.6,0,1-0.4,1-1v-1.9c0-0.6-0.4-1-1-1s-1,0.4-1,1v1.9C3.5,35,3.9,35.4,4.5,35.4z"/>
	<path class="st1" d="M8.5,35.4c0.6,0,1-0.4,1-1v-1.9c0-0.6-0.4-1-1-1s-1,0.4-1,1v1.9C7.5,35,7.9,35.4,8.5,35.4z"/>
	<path class="st1" d="M12.5,35.4c0.6,0,1-0.4,1-1v-1.9c0-0.6-0.4-1-1-1s-1,0.4-1,1v1.9C11.5,35,11.9,35.4,12.5,35.4z"/>
	<path class="st0" d="M27,30.5H17v7h10V30.5z M21,35.5c0,0.6-0.4,1-1,1s-1-0.4-1-1v-3c0-0.6,0.4-1,1-1s1,0.4,1,1V35.5z M25,35.5
		c0,0.6-0.4,1-1,1s-1-0.4-1-1v-3c0-0.6,0.4-1,1-1s1,0.4,1,1V35.5z"/>
	<path class="st1" d="M20,31.5c-0.6,0-1,0.4-1,1v3c0,0.6,0.4,1,1,1s1-0.4,1-1v-3C21,31.9,20.6,31.5,20,31.5z"/>
	<path class="st1" d="M24,31.5c-0.6,0-1,0.4-1,1v3c0,0.6,0.4,1,1,1s1-0.4,1-1v-3C25,31.9,24.6,31.5,24,31.5z"/>
	<path class="st0" d="M38.7,37.2c0.2-0.2,0.3-0.4,0.3-0.7v-32H29v26v7h9C38.3,37.5,38.5,37.4,38.7,37.2z M33,34.4c0,0.6-0.4,1-1,1
		s-1-0.4-1-1v-1.9c0-0.6,0.4-1,1-1s1,0.4,1,1V34.4z M33,29.4c0,0.6-0.4,1-1,1s-1-0.4-1-1v-1.9c0-0.6,0.4-1,1-1s1,0.4,1,1V29.4z
		 M33,24.4c0,0.6-0.4,1-1,1s-1-0.4-1-1v-1.9c0-0.6,0.4-1,1-1s1,0.4,1,1V24.4z M33,19.4c0,0.6-0.4,1-1,1s-1-0.4-1-1v-1.9
		c0-0.6,0.4-1,1-1s1,0.4,1,1V19.4z M33,14.4c0,0.6-0.4,1-1,1s-1-0.4-1-1v-1.9c0-0.6,0.4-1,1-1s1,0.4,1,1V14.4z M33,9.4
		c0,0.6-0.4,1-1,1s-1-0.4-1-1V7.5c0-0.6,0.4-1,1-1s1,0.4,1,1V9.4z M37,34.4c0,0.6-0.4,1-1,1s-1-0.4-1-1v-1.9c0-0.6,0.4-1,1-1
		s1,0.4,1,1V34.4z M37,29.4c0,0.6-0.4,1-1,1s-1-0.4-1-1v-1.9c0-0.6,0.4-1,1-1s1,0.4,1,1V29.4z M37,24.4c0,0.6-0.4,1-1,1s-1-0.4-1-1
		v-1.9c0-0.6,0.4-1,1-1s1,0.4,1,1V24.4z M37,19.4c0,0.6-0.4,1-1,1s-1-0.4-1-1v-1.9c0-0.6,0.4-1,1-1s1,0.4,1,1V19.4z M37,14.4
		c0,0.6-0.4,1-1,1s-1-0.4-1-1v-1.9c0-0.6,0.4-1,1-1s1,0.4,1,1V14.4z M37,9.4c0,0.6-0.4,1-1,1s-1-0.4-1-1V7.5c0-0.6,0.4-1,1-1
		s1,0.4,1,1V9.4z"/>
	<path class="st1" d="M40.4,3.1C40,2.7,39.5,2.5,39,2.5H29c-0.5,0-1,0.2-1.4,0.6C27.2,3.4,27,3.9,27,4.5v24h-5V14.2
		c0-1.3-0.8-2.4-2-2.8V8.5c0-0.5-0.2-1-0.6-1.4C19,6.7,18.5,6.5,18,6.5h-1V2c0-0.5-0.2-1-0.6-1.4C16,0.2,15.5,0,15,0h-2
		c-0.5,0-1,0.2-1.4,0.6C11.2,1,11,1.5,11,2v4.5h-1c-0.5,0-1,0.2-1.4,0.6C8.2,7.4,8,7.9,8,8.5v2.9c-1.2,0.4-2,1.5-2,2.8v4.3H2
		c-0.5,0-1,0.2-1.4,0.6C0.2,19.4,0,19.9,0,20.5v16c0,0.8,0.3,1.6,0.9,2.1c0.6,0.6,1.3,0.9,2.1,0.9h12h2h10h2h9
		c0.8,0,1.6-0.3,2.1-0.9c0.6-0.6,0.9-1.3,0.9-2.1v-32C41,3.9,40.8,3.4,40.4,3.1z M2,36.5v-16h13v10v7H3c-0.3,0-0.5-0.1-0.7-0.3
		C2.1,37,2,36.7,2,36.5z M10,8.5h8v2h-8V8.5z M13,2h2v4h-2V2z M9,13.2h10c0.6,0,1,0.4,1,1v14.3h-3v-8c0-0.5-0.2-1-0.6-1.4
		c-0.4-0.4-0.9-0.6-1.4-0.6H8v-4.3C8,13.6,8.4,13.2,9,13.2z M17,37.5v-7h10v7H17z M29,30.5v-26h10v32c0,0.3-0.1,0.5-0.3,0.7
		c-0.2,0.2-0.4,0.3-0.7,0.3h-9V30.5z"/>
	<path class="st1" d="M32,6.5c-0.6,0-1,0.4-1,1v1.9c0,0.6,0.4,1,1,1s1-0.4,1-1V7.5C33,6.9,32.6,6.5,32,6.5z"/>
	<path class="st1" d="M36,6.5c-0.6,0-1,0.4-1,1v1.9c0,0.6,0.4,1,1,1s1-0.4,1-1V7.5C37,6.9,36.6,6.5,36,6.5z"/>
	<path class="st1" d="M32,11.5c-0.6,0-1,0.4-1,1v1.9c0,0.6,0.4,1,1,1s1-0.4,1-1v-1.9C33,11.9,32.6,11.5,32,11.5z"/>
	<path class="st1" d="M36,11.5c-0.6,0-1,0.4-1,1v1.9c0,0.6,0.4,1,1,1s1-0.4,1-1v-1.9C37,11.9,36.6,11.5,36,11.5z"/>
	<path class="st1" d="M32,16.5c-0.6,0-1,0.4-1,1v1.9c0,0.6,0.4,1,1,1s1-0.4,1-1v-1.9C33,16.9,32.6,16.5,32,16.5z"/>
	<path class="st1" d="M36,16.5c-0.6,0-1,0.4-1,1v1.9c0,0.6,0.4,1,1,1s1-0.4,1-1v-1.9C37,16.9,36.6,16.5,36,16.5z"/>
	<path class="st1" d="M32,21.5c-0.6,0-1,0.4-1,1v1.9c0,0.6,0.4,1,1,1s1-0.4,1-1v-1.9C33,21.9,32.6,21.5,32,21.5z"/>
	<path class="st1" d="M36,21.5c-0.6,0-1,0.4-1,1v1.9c0,0.6,0.4,1,1,1s1-0.4,1-1v-1.9C37,21.9,36.6,21.5,36,21.5z"/>
	<path class="st1" d="M32,26.5c-0.6,0-1,0.4-1,1v1.9c0,0.6,0.4,1,1,1s1-0.4,1-1v-1.9C33,26.9,32.6,26.5,32,26.5z"/>
	<path class="st1" d="M36,26.5c-0.6,0-1,0.4-1,1v1.9c0,0.6,0.4,1,1,1s1-0.4,1-1v-1.9C37,26.9,36.6,26.5,36,26.5z"/>
	<path class="st1" d="M32,31.5c-0.6,0-1,0.4-1,1v1.9c0,0.6,0.4,1,1,1s1-0.4,1-1v-1.9C33,31.9,32.6,31.5,32,31.5z"/>
	<path class="st1" d="M36,31.5c-0.6,0-1,0.4-1,1v1.9c0,0.6,0.4,1,1,1s1-0.4,1-1v-1.9C37,31.9,36.6,31.5,36,31.5z"/>
</g>
</svg>
