<?xml version="1.0" encoding="utf-8"?>
<!-- Generator: Adobe Illustrator 25.4.1, SVG Export Plug-In . SVG Version: 6.00 Build 0)  -->
<svg version="1.1" id="Layer_1" xmlns="http://www.w3.org/2000/svg" xmlns:xlink="http://www.w3.org/1999/xlink" x="0px" y="0px"
	 viewBox="0 0 28.9 32.7" style="enable-background:new 0 0 28.9 32.7;" xml:space="preserve">
<style type="text/css">
	.st0{fill:none;}
	.st1{fill:#FFFFFF;}
	.st2{fill:#346CCF;}
</style>
<g>
	<path class="st0" d="M7.8,20c0,0.1,0,0.1,0,0.2l-1,2h15.3l-1-2c0-0.1,0-0.1,0-0.2c-0.2,0-0.3,0-0.5,0H7.8z"/>
	<path class="st0" d="M23,24.1H5.8c0,0,0,0,0,0l-1.5,3h20.2L23,24.1C23,24.1,23,24.1,23,24.1z"/>
	<path class="st1" d="M16.5,4h-5c-0.6,0-1-0.4-1-1V2c-0.8,0-1.6,0.3-2.3,0.8C7.5,3.4,7,4.2,6.8,5l-1.5,6h17.4l-1.5-6
		c-0.2-0.9-0.7-1.6-1.4-2.2c-0.7-0.5-1.4-0.8-2.3-0.8v1C17.5,3.6,17.1,4,16.5,4z"/>
	<path class="st1" d="M4.5,14.3c-0.1,0.2-0.1,0.5-0.1,0.7c0,0.8,0.3,1.6,0.9,2.1C5.8,17.7,6.6,18,7.4,18h13.2c0.2,0,0.5,0,0.7-0.1
		c0.8-0.2,1.4-0.7,1.8-1.4c0.4-0.7,0.5-1.5,0.3-2.3L23.2,13H4.8L4.5,14.3z M18.5,14c0.8,0,1.5,0.7,1.5,1.5S19.3,17,18.5,17
		S17,16.3,17,15.5S17.7,14,18.5,14z M9.5,14c0.8,0,1.5,0.7,1.5,1.5S10.3,17,9.5,17S8,16.3,8,15.5S8.7,14,9.5,14z"/>
	<path class="st2" d="M7.3,18.8C7.8,19,8,19.5,7.8,20h12.8c0.2,0,0.3,0,0.5,0c-0.1-0.5,0.1-0.9,0.5-1.2c0.5-0.2,1.1,0,1.3,0.5
		l0.1,0.1c0.8-0.4,1.5-1,1.9-1.8c0.7-1.1,0.9-2.5,0.6-3.8l-2.3-9.2c-0.3-1.3-1.1-2.5-2.1-3.3C20,0.5,18.6,0,17.3,0h-0.8
		c0.6,0,1,0.4,1,1v1c0.8,0,1.6,0.3,2.3,0.8C20.5,3.4,21,4.2,21.2,5l1.5,6h0.8c0.6,0,1,0.4,1,1s-0.4,1-1,1h-0.3l0.3,1.3
		c0.2,0.8,0.1,1.6-0.3,2.3c-0.4,0.7-1.1,1.2-1.8,1.4C21.1,18,20.8,18,20.6,18H7.4c-0.8,0-1.6-0.3-2.1-0.9c-0.6-0.6-0.9-1.3-0.9-2.1
		c0-0.2,0-0.5,0.1-0.7L4.8,13H3.9c-0.5,0-0.9-0.4-1-0.9l-0.4,1.6c-0.1,0.4-0.1,0.8-0.1,1.2c0,1.3,0.5,2.6,1.5,3.5
		c0.5,0.5,1.2,0.9,1.9,1.2L6,19.3C6.2,18.8,6.8,18.6,7.3,18.8z"/>
	<path class="st2" d="M3.9,11h1.4l1.5-6C7,4.2,7.5,3.4,8.2,2.8C8.9,2.3,9.7,2.1,10.5,2V1c0-0.6,0.4-1,1-1h-0.8C9.4,0,8,0.5,7,1.3
		c-1,0.8-1.8,2-2.1,3.3l-1.7,6.9C3.3,11.2,3.6,11,3.9,11z"/>
	<path class="st2" d="M10.5,1v1v1c0,0.6,0.4,1,1,1h5c0.6,0,1-0.4,1-1V2V1c0-0.6-0.4-1-1-1h-5C10.9,0,10.5,0.4,10.5,1z"/>
	<path class="st2" d="M3.9,13h0.9h18.4h0.3c0.6,0,1-0.4,1-1s-0.4-1-1-1h-0.8H5.3H3.9c-0.3,0-0.6,0.2-0.8,0.4C3,11.6,2.9,11.8,2.9,12
		c0,0.1,0,0.1,0,0.1C3,12.6,3.4,13,3.9,13z"/>
	<circle class="st2" cx="9.5" cy="15.5" r="1.5"/>
	<circle class="st2" cx="18.5" cy="15.5" r="1.5"/>
	<path class="st2" d="M28.8,31.3L23,19.4l-0.1-0.1c-0.2-0.5-0.8-0.7-1.3-0.5c-0.4,0.2-0.6,0.7-0.5,1.2c0,0.1,0,0.1,0,0.2l1,2H6.8
		l1-2c0,0,0-0.1,0-0.2c0.1-0.5,0-1-0.5-1.2c-0.5-0.2-1.1,0-1.3,0.5l-0.2,0.4L0.1,31.3c-0.2,0.5,0,1.1,0.5,1.3
		c0.1,0.1,0.3,0.1,0.4,0.1c0.4,0,0.7-0.2,0.9-0.6L3.4,29c0.1,0.1,0.3,0.1,0.4,0.1h21.7l1.5,3c0.2,0.4,0.5,0.6,0.9,0.6
		c0.1,0,0.3,0,0.4-0.1C28.8,32.4,29,31.8,28.8,31.3z M4.3,27.1l1.5-3c0,0,0,0,0,0H23c0,0,0,0,0.1,0l1.5,3H4.3z"/>
</g>
</svg>
