<?xml version="1.0" encoding="utf-8"?>
<!-- Generator: Adobe Illustrator 25.4.1, SVG Export Plug-In . SVG Version: 6.00 Build 0)  -->
<svg version="1.1" id="Layer_1" xmlns="http://www.w3.org/2000/svg" xmlns:xlink="http://www.w3.org/1999/xlink" x="0px" y="0px"
	 viewBox="0 0 313.1 186.3" style="enable-background:new 0 0 313.1 186.3;" xml:space="preserve">
<style type="text/css">
	.st0{fill:#FFFFFF;}
</style>
<g>
	<path class="st0" d="M22.3,143.1c-11.1,0-22.3,9.7-22.3,21.6c0,11.9,10,21.6,22.3,21.6h10.1v-7l-3.8-3.7h-6.3
		c0,0-11.2-1.2-11.2-10.9c0-9.7,11.2-10.9,11.2-10.9H27l7.2,7v25.6h11.1v-30l-13.7-13.3C31.2,143.1,29.4,143.1,22.3,143.1z"/>
	<path class="st0" d="M117.2,143.1c-11.1,0-22.3,9.7-22.3,21.6c0,11.9,10,21.6,22.3,21.6h10.1v-7l-3.8-3.7h-6.3
		c0,0-11.2-1.2-11.2-10.9c0-9.7,11.2-10.9,11.2-10.9h4.7l7.2,7v25.6h11.1v-30l-13.7-13.3C126.1,143.1,124.3,143.1,117.2,143.1z"/>
	<path class="st0" d="M299.4,143.1c-0.4,0-2.2,0-9.3,0c-11.1,0-22.3,9.7-22.3,21.6c0,11.9,10,21.6,22.3,21.6h10.1v-7l-3.8-3.7h-6.3
		c0,0-11.2-1.2-11.2-10.9c0-9.7,11.2-10.9,11.2-10.9h4.7l7.2,7v25.6h11.1v-30L299.4,143.1z"/>
	<path class="st0" d="M210.7,143.1c-11.1,0-22.3,9.7-22.3,21.6c0,11.9,10,21.6,22.3,21.6h10.1v-7l-3.8-3.7h-6.3
		c0,0-11.2-1.2-11.2-10.9c0-9.7,11.2-10.9,11.2-10.9h4.7l7.2,7v25.6h11.1v-30L220,143.1C219.6,143.1,217.8,143.1,210.7,143.1z"/>
	<path class="st0" d="M58.4,154.1c0,0,17.5,0,21.3,0s3.5,3.1,3.5,3.1v4.3h11.1V154c0,0,0.6-10.9-9.2-10.9s-37.7,0-37.7,0v24.8h0
		l4.4,3h-4.4v7.5h11.1v-3.1l16.6,11l19.9,0L58.4,162V154.1z"/>
	<polygon class="st0" points="282.3,143.1 262.4,143.1 245.8,154.1 245.8,143.1 234.7,143.1 234.7,167.9 234.7,167.9 239.1,170.9 
		234.7,170.9 234.7,178.4 245.8,178.4 245.8,175.3 262.4,186.3 282.3,186.3 249.8,164.7 	"/>
	<path class="st0" d="M161.7,154.8l-19.9,0l30.7,20.5c0,0-11.8,0-15.6,0c-3.8,0-3.5-3.1-3.5-3.1v-4.3h-11.1v7.6
		c0,0-0.6,10.9,9.2,10.9c9.9,0,37.7,0,37.7,0l0-13.1L161.7,154.8z"/>
	<polygon class="st0" points="161.7,154.7 184.9,154.7 184.9,150.9 175,143.1 161.7,143.1 	"/>
	<path class="st0" d="M156.5,132.5c36.6,0,66.3-29.7,66.3-66.3c0-36.6-29.7-66.3-66.3-66.3S90.3,29.7,90.3,66.3
		C90.3,102.9,119.9,132.5,156.5,132.5z M156.5,9.2c31.5,0,57.1,25.6,57.1,57.1c0,31.5-25.6,57.1-57.1,57.1
		c-31.5,0-57.1-25.6-57.1-57.1C99.5,34.7,125,9.2,156.5,9.2z"/>
	<path class="st0" d="M133.2,78.8L151.4,97v24.1c1.7,0.2,3.4,0.2,5.1,0.2s3.4-0.1,5.1-0.2V97l18.2-18.2c3.1,1.9,6.8,2.9,10.6,2.9
		c11.5,0,20.8-9.3,20.8-20.8s-9.3-20.8-20.8-20.8s-20.8,9.3-20.8,20.8c0,3.9,1.1,7.5,2.9,10.6l-11,11V52.4
		c9-2.3,15.7-10.4,15.7-20.2c0-11.5-9.3-20.8-20.8-20.8s-20.8,9.3-20.8,20.8c0,9.7,6.7,17.9,15.7,20.2v30.1l-11-11
		c1.9-3.1,2.9-6.8,2.9-10.7c0-11.5-9.3-20.8-20.8-20.8s-20.8,9.3-20.8,20.8s9.3,20.8,20.8,20.8C126.5,81.7,130.1,80.7,133.2,78.8z"
		/>
</g>
</svg>
