<?xml version="1.0" encoding="utf-8"?>
<!-- Generator: Adobe Illustrator 25.4.1, SVG Export Plug-In . SVG Version: 6.00 Build 0)  -->
<svg version="1.1" id="Layer_1" xmlns="http://www.w3.org/2000/svg" xmlns:xlink="http://www.w3.org/1999/xlink" x="0px" y="0px"
	 viewBox="0 0 206.3 134.7" style="enable-background:new 0 0 206.3 134.7;" xml:space="preserve">
<style type="text/css">
	.st0{fill:#FFFFFF;}
</style>
<g>
	<rect x="21.6" y="110.7" class="st0" width="8" height="23.9"/>
	<polygon class="st0" points="144.2,121.5 140.9,110.7 133.2,110.7 133.2,134.7 141.3,134.7 141.3,123.9 144.6,134.7 152.3,134.7 
		152.3,110.7 144.2,110.7 	"/>
	<polygon class="st0" points="122.5,120.2 119.6,120.2 119.6,110.7 111.5,110.7 111.5,134.7 119.6,134.7 119.6,123.8 122.5,123.8 
		122.5,134.7 130.6,134.7 130.6,110.7 122.5,110.7 	"/>
	<rect x="154.9" y="110.7" class="st0" width="8" height="23.9"/>
	<path class="st0" d="M48.7,110.7H35c-1.5,0-2.7,1.2-2.7,2.7v18.5c0,1.5,1.2,2.7,2.7,2.7h13.6c1.5,0,2.7-1.2,2.7-2.7v-18.5
		C51.4,112,50.2,110.7,48.7,110.7z M43.3,131h-3v-16.6h3V131z"/>
	<path class="st0" d="M106.1,110.7H92.4c-1.5,0-2.7,1.2-2.7,2.7v18.5c0,1.5,1.2,2.7,2.7,2.7h13.6c1.5,0,2.7-1.2,2.7-2.7v-5.3h-8v4.4
		h-3v-16.6h3v6.4h8v-7.3C108.8,112,107.6,110.7,106.1,110.7z"/>
	<path class="st0" d="M190,110.7c-1.5,0-2.7,1.2-2.7,2.7v21.2h8v-10.8h3v10.8h8v-23.9H190z M198.3,120.2h-3v-5.8h3V120.2z"/>
	<path class="st0" d="M182,110.7h-13.6c-1.5,0-2.7,1.2-2.7,2.7v18.5c0,1.5,1.2,2.7,2.7,2.7H182c1.5,0,2.7-1.2,2.7-2.7v-5.3h-8v4.4
		h-3v-16.6h3v6.4h8v-7.3C184.7,112,183.4,110.7,182,110.7z"/>
	<polygon class="st0" points="72.7,134.7 87.6,134.7 87.6,131 80.7,131 80.7,123.8 85.7,123.8 85.7,120.2 80.7,120.2 80.7,114.4 
		87.6,114.4 87.6,110.7 72.7,110.7 	"/>
	<polygon class="st0" points="52.8,114.4 57.8,114.4 57.8,134.7 65.9,134.7 65.9,114.4 70.8,114.4 70.8,110.7 52.8,110.7 	"/>
	<path class="st0" d="M16.3,110.7H8v-7.2H0v31.1h16.3c1.5,0,2.7-1.2,2.7-2.7v-18.5C19,112,17.8,110.7,16.3,110.7z M11,131H8v-16.6h3
		V131z"/>
	<path class="st0" d="M139.2,14.9C131.5,7.2,121.4,2,110.1,0.5c-2.3-0.3-4.6-0.5-6.9-0.5C74.9,0,52.1,22.9,52.1,51.1
		c0,24.3,16.9,44.6,39.6,49.8c1.7,0.4,3.4,0.7,5.1,0.9c2.1,0.3,4.2,0.4,6.4,0.4c7.3,0,14.2-1.5,20.5-4.3c18-7.9,30.6-25.9,30.6-46.8
		c0-14-5.6-26.7-14.8-35.9C139.4,15.1,139.3,15,139.2,14.9z M107.6,32.2c2.4-10.7,2.4-22.2,2.1-29.3c10.7,1.5,20.4,6.4,27.7,13.7
		c0,0,0,0,0,0c-1.3,0.7-6.8,3.5-16.8,5.8C114,24,110.2,27.7,107.6,32.2C107.6,32.2,107.6,32.2,107.6,32.2z M71.4,57.7
		c-10.3-9.3-11.5-28.6-11.5-28.6s5.1,3,15.7,5.5c16.8,3.9,14.3,23,19.7,30.1C95.3,64.8,78.6,64.2,71.4,57.7z M122.7,95.7
		c9.4-12.7,10.6-32,10.6-32s-6.5,3.9-20.1,7.1c-11.9,2.8-16.3,11.6-18.9,20.4c-0.2-0.6-0.3-1.3-0.4-1.9c-0.9-5.2-0.7-11,0.4-17.4
		c0-0.1,0.1-0.6,0.1-0.7c2.1-10.7,12.8-15.9,18.6-17.9c4.5-1.2,9.2-2.9,12.3-5.7c10.3-9.2,12.2-27.5,12.5-30.6c0,0,0,0,0,0
		c8.7,8.8,14.1,20.9,14.1,34.2C151.8,71,139.8,88.1,122.7,95.7z"/>
</g>
</svg>
