<?xml version="1.0" encoding="utf-8"?>
<!-- Generator: Adobe Illustrator 25.4.1, SVG Export Plug-In . SVG Version: 6.00 Build 0)  -->
<svg version="1.1" id="Layer_1" xmlns="http://www.w3.org/2000/svg" xmlns:xlink="http://www.w3.org/1999/xlink" x="0px" y="0px"
	 viewBox="0 0 253 172.5" style="enable-background:new 0 0 253 172.5;" xml:space="preserve">
<style type="text/css">
	.st0{fill:#FFFFFF;}
</style>
<g>
	<polygon class="st0" points="92.3,0 130,40.1 253,40.1 253,0 	"/>
	<polygon class="st0" points="73.4,0 0,0 0,144.3 40.1,144.3 40.1,40.1 56.1,40.1 154.3,144.4 253,144.3 253,104.2 171.4,104.2 	"/>
	<rect x="0.8" y="156" class="st0" width="3.2" height="16.4"/>
	<polygon class="st0" points="31.1,166 24.6,156 21.7,156 21.7,172.4 24.9,172.4 24.9,162.3 31.4,172.4 34.2,172.4 34.2,156 
		31.1,156 	"/>
	<path class="st0" d="M62.2,157.6c-1.1-1.1-2.6-1.6-4.3-1.6H52v16.4h5.9c1.7,0,3.2-0.5,4.3-1.6c1.8-1.8,1.7-4.2,1.7-6.7
		S64,159.4,62.2,157.6z M60,168.5c-0.6,0.7-1.3,1-2.4,1h-2.4v-10.7h2.4c1.1,0,1.8,0.3,2.4,1c0.6,0.7,0.7,1.8,0.7,4.3
		S60.6,167.8,60,168.5z"/>
	<path class="st0" d="M89.6,166.6c0,1.9-1.1,3-2.9,3s-2.8-1.1-2.8-3V156h-3.2v10.8c0,3.5,2.7,5.7,6,5.7c3.4,0,6-2.3,6-5.7V156h-3.2
		V166.6z"/>
	<path class="st0" d="M116.5,162.8l-1.9-0.3c-0.7-0.1-1.2-0.3-1.5-0.6c-0.3-0.3-0.5-0.8-0.5-1.2c0-1.1,0.8-2.1,2.5-2.1
		c1.1,0,2.3,0.1,3.4,1.1l2-2c-1.4-1.4-3-1.9-5.3-1.9c-3.5,0-5.7,2-5.7,5c0,1.4,0.4,2.4,1.2,3.2c0.7,0.7,1.8,1.1,3.2,1.4l2,0.3
		c0.8,0.1,1.1,0.3,1.4,0.6c0.3,0.3,0.5,0.8,0.5,1.4c0,1.3-1,2-2.9,2c-1.5,0-2.9-0.3-4-1.4l-2.1,2.1c1.6,1.6,3.5,2.2,6,2.2
		c3.4,0,6.1-1.8,6.1-5c0-1.4-0.4-2.6-1.3-3.5C118.9,163.4,117.9,163,116.5,162.8z"/>
	<polygon class="st0" points="136.5,158.9 140.8,158.9 140.8,172.4 144,172.4 144,158.9 148.3,158.9 148.3,156 136.5,156 	"/>
	<path class="st0" d="M176.5,161c0-2.7-2-5-5.3-5h-6.4v16.4h3.2v-6.5h2.3l3.2,6.5h3.7l-3.7-7.1C175.1,164.7,176.5,163.3,176.5,161z
		 M171,163.2h-3v-4.3h3c1.4,0,2.3,0.9,2.3,2.2S172.4,163.2,171,163.2z"/>
	<rect x="193.7" y="156" class="st0" width="3.2" height="16.4"/>
	<polygon class="st0" points="214.6,172.4 225.4,172.4 225.4,169.5 217.8,169.5 217.8,165.5 224.3,165.5 224.3,162.7 217.8,162.7 
		217.8,158.9 225.4,158.9 225.4,156 214.6,156 	"/>
	<path class="st0" d="M248.6,162.8l-1.9-0.3c-0.7-0.1-1.2-0.3-1.5-0.6c-0.3-0.3-0.5-0.8-0.5-1.2c0-1.1,0.8-2.1,2.5-2.1
		c1.1,0,2.3,0.1,3.4,1.1l2-2c-1.4-1.4-3-1.9-5.3-1.9c-3.5,0-5.7,2-5.7,5c0,1.4,0.4,2.4,1.2,3.2c0.7,0.7,1.8,1.1,3.2,1.4l2,0.3
		c0.8,0.1,1.1,0.3,1.4,0.6c0.3,0.3,0.5,0.8,0.5,1.4c0,1.3-1,2-2.9,2c-1.5,0-2.9-0.3-4-1.4l-2.1,2.1c1.6,1.6,3.5,2.2,6,2.2
		c3.4,0,6.1-1.8,6.1-5c0-1.4-0.4-2.6-1.3-3.5C251,163.4,250.1,163,248.6,162.8z"/>
</g>
</svg>
