<?xml version="1.0" encoding="utf-8"?>
<!-- Generator: Adobe Illustrator 25.4.1, SVG Export Plug-In . SVG Version: 6.00 Build 0)  -->
<svg version="1.1" id="Layer_1" xmlns="http://www.w3.org/2000/svg" xmlns:xlink="http://www.w3.org/1999/xlink" x="0px" y="0px"
	 viewBox="0 0 283.4 276.8" style="enable-background:new 0 0 283.4 276.8;" xml:space="preserve">
<style type="text/css">
	.st0{fill:#FFFFFF;}
</style>
<g>
	<rect x="167.2" y="108.5" class="st0" width="51.1" height="25.5"/>
	<polygon class="st0" points="218.2,58 65.1,58 65.1,83 65.2,83 90.7,83 116.1,83 141.7,108.5 141.7,83 167.2,83 218.2,83 	"/>
	<path class="st0" d="M134.7,189.3c0-0.3-0.2-0.5-0.5-0.5h-2.3c-0.3,0-0.5,0.2-0.5,0.5v1.9c0,0.3,0.2,0.5,0.5,0.5h2.3
		c0.3,0,0.5-0.1,0.5-0.4V189.3z"/>
	<polygon class="st0" points="159,194.5 159,190.2 156,194.5 	"/>
	<path class="st0" d="M147.3,189.3c0-0.3-0.2-0.5-0.5-0.5h-2.3c-0.3,0-0.5,0.2-0.5,0.5v1.9c0,0.3,0.2,0.5,0.5,0.5h2.3
		c0.3,0,0.5-0.1,0.5-0.4V189.3z"/>
	<path class="st0" d="M218.3,170.7v-11.1h-51.2L141.7,134v25.5h-25.5v-51.1H90.7v51.1H65.1v11.1c0.5,4.2,2.5,8.4,5.9,11.9l55.6,55.6
		c8.3,8.6,21.9,8.6,30.2,0l55.6-55.6C215.8,179,217.8,174.8,218.3,170.7z M124.9,198.8h-2.8v-9.6l-2.8,2v-2.8l2.8-2h2.8V198.8z
		 M153.8,177.8h1.7v1.7h-1.7V177.8z M152.4,172.4v1.4h-2v5.7h-1.6v-5.7h-2v-1.4H152.4z M144.4,196.4h2.3c0.3,0,0.5-0.2,0.5-0.5v-2.2
		c-0.4,0.3-1.1,0.5-1.7,0.5H144c-0.8,0-1.5-0.2-2-0.7c-0.5-0.5-0.7-1.2-0.7-2v-2.2c0-0.8,0.2-1.5,0.7-2c0.5-0.5,1.2-0.7,2-0.7h3.3
		c0.8,0,1.5,0.2,2,0.7c0.5,0.5,0.7,1.2,0.7,2v6.9c0,0.8-0.2,1.5-0.7,2c-0.5,0.5-1.2,0.7-2,0.7H144c-0.8,0-1.5-0.2-2-0.7
		c-0.5-0.5-0.7-1.2-0.7-2v-0.7h2.8v0.6C143.9,196.3,144.1,196.4,144.4,196.4z M139,173.9c0-0.5,0.1-0.8,0.4-1.2
		c0.3-0.3,0.6-0.4,1.2-0.4h2.3c0.5,0,0.8,0.1,1.2,0.4c0.3,0.3,0.4,0.6,0.4,1.2v0.6H143v-0.5c0-0.2-0.1-0.3-0.3-0.3h-1.8
		c-0.2,0-0.3,0.1-0.3,0.3v0.8c0,0.2,0.1,0.3,0.3,0.3h2.1c0.4,0,0.8,0.1,1.2,0.4c0.3,0.3,0.4,0.6,0.4,1.2v1.1c0,0.5-0.1,0.8-0.4,1.2
		c-0.3,0.3-0.6,0.4-1.2,0.4h-2.3c-0.5,0-0.8-0.1-1.2-0.4c-0.3-0.3-0.4-0.6-0.4-1.2v-0.6h1.5v0.5c0,0.2,0.1,0.3,0.3,0.3h1.8
		c0.2,0,0.3-0.1,0.3-0.3v-0.8c0-0.2-0.1-0.3-0.3-0.3h-2.1c-0.4,0-0.8-0.1-1.2-0.4c-0.3-0.3-0.4-0.6-0.4-1.2V173.9z M131.6,172.4h5
		v1.4h-3.4v1.5h2.9v1.4h-2.9v1.5h3.4v1.4h-5V172.4z M131.8,196.4h2.3c0.3,0,0.5-0.2,0.5-0.5v-2.2c-0.4,0.3-1.1,0.5-1.7,0.5h-1.6
		c-0.8,0-1.5-0.2-2-0.7c-0.5-0.5-0.7-1.2-0.7-2v-2.2c0-0.8,0.2-1.5,0.7-2s1.2-0.7,2-0.7h3.3c0.8,0,1.5,0.2,2,0.7s0.7,1.2,0.7,2v6.9
		c0,0.8-0.2,1.5-0.7,2c-0.5,0.5-1.2,0.7-2,0.7h-3.3c-0.8,0-1.5-0.2-2-0.7c-0.5-0.5-0.7-1.2-0.7-2v-0.8h2.6v0.6
		C131.3,196.2,131.5,196.4,131.8,196.4z M149.7,232.5l-8.1-5.8l-8.1,5.8l3.1-9.4l-8.1-5.8h10l3.1-9.4l3.1,9.4h10l-8.1,5.8
		L149.7,232.5z M161.9,196.9v1.9h-2.8v-1.9H153v-2.4l6-8.2h2.8v8.2h1.4v2.4H161.9z"/>
	<polygon class="st0" points="141.7,52.8 144.7,43.3 154.7,43.3 146.6,37.5 149.7,28 141.7,33.8 133.6,28 136.6,37.5 128.6,43.3 
		138.5,43.3 	"/>
	<polygon class="st0" points="250.8,71.4 250.1,63.5 242.6,60.3 243.6,68.2 	"/>
	<path class="st0" d="M242.6,194.1c-2.3,3.8-4.9,7.5-7.6,11l7.6,17.2l20.4,2.3c3-5.1,5.7-10.4,8.2-15.9l-19.2,0.4L242.6,194.1z"/>
	<path class="st0" d="M251.5,176.1c-1.6,4-3.4,7.9-5.4,11.8l10.1,13.7l18.3-1.4c1.9-5.1,3.4-10.3,4.8-15.7l-16.6,3.3L251.5,176.1z"
		/>
	<path class="st0" d="M257,157.5c-0.8,4-1.9,7.9-3.1,11.8l11.5,10.9l15.7-4.2c0.8-4.9,1.5-9.7,1.9-14.8l-14.1,5.7L257,157.5z"/>
	<path class="st0" d="M283.1,138.8l-11.7,7l-12.1-6.6c-0.2,3.7-0.5,7.3-1.1,10.9l11.9,8.3l13.2-6.2c0-0.8,0-1.7,0-2.5
		C283.4,146,283.3,142.4,283.1,138.8z"/>
	<path class="st0" d="M258.8,121.6c0.3,3.3,0.5,6.6,0.6,10l11.8,5.9l11-7.6c-0.5-3.9-1.2-7.8-2-11.7l-9.5,7.6L258.8,121.6z"/>
	<path class="st0" d="M255.8,105.1c0.7,3,1.4,6,1.9,9.1l11.2,3.5l8.9-8.2c-1-3.5-2.1-7-3.4-10.4l-7.7,8.4L255.8,105.1z"/>
	<path class="st0" d="M250.9,89.9c1.1,2.5,2,5.1,2.9,7.7l10.5,1.7l7.2-8.1c-1.4-3.2-2.8-6.2-4.3-9.2l-5.7,8.8L250.9,89.9z"/>
	<path class="st0" d="M246.1,79.6c0.1,0.1,0.1,0.2,0.2,0.3c0.5,1.1,1.1,2,1.6,3.1H258l4.9-8.7c-1.6-2.5-3.2-5.1-4.9-7.6l-3.9,9.4
		l-9.6,0.4C245,77.7,245.6,78.6,246.1,79.6z"/>
	<polygon class="st0" points="40.7,60.3 33.3,63.5 32.5,71.4 39.8,68.2 	"/>
	<path class="st0" d="M40.8,194.1l-9.4,15l-19.2-0.4c2.4,5.5,5.2,10.8,8.2,15.9l20.4-2.3l7.6-17.2C45.7,201.6,43.1,197.9,40.8,194.1
		z"/>
	<path class="st0" d="M37.3,187.8c-2-3.8-3.8-7.7-5.4-11.8l-11.1,11.7l-16.6-3.3c1.4,5.4,2.9,10.6,4.8,15.7l18.3,1.4L37.3,187.8z"/>
	<path class="st0" d="M29.5,169.3c-1.2-3.8-2.2-7.7-3.1-11.8l-12,9.3l-14.1-5.7c0.4,5.1,1.1,10,1.9,14.8l15.7,4.2L29.5,169.3z"/>
	<path class="st0" d="M13.2,158.4l12-8.3c-0.5-3.6-0.8-7.2-1.1-10.9L12,145.8l-11.7-7c-0.2,3.6-0.4,7.2-0.3,10.8c0,0.8,0,1.7,0,2.5
		L13.2,158.4z"/>
	<path class="st0" d="M24,131.6c0.1-3.4,0.3-6.7,0.6-10l-11.9,4.2l-9.5-7.6c-0.8,3.8-1.5,7.7-2,11.7l11,7.6L24,131.6z"/>
	<path class="st0" d="M25.6,114.2c0.5-3.1,1.2-6.1,1.9-9.1l-10.9,2.4l-7.7-8.4c-1.3,3.4-2.4,6.9-3.4,10.4l8.9,8.2L25.6,114.2z"/>
	<path class="st0" d="M29.6,97.7c0.8-2.6,1.8-5.2,2.9-7.7l-10.5,1l-5.7-8.8c-1.6,3-3,6-4.3,9.2l7.2,8.1L29.6,97.7z"/>
	<path class="st0" d="M35.5,83c0.5-1.1,1.1-2,1.6-3.1c0.1-0.1,0.1-0.2,0.2-0.3c0.5-1,1.1-1.9,1.7-3.1l-9.6-0.4l-3.9-9.4
		c-1.7,2.5-3.3,5.1-4.9,7.6l4.9,8.7H35.5z"/>
	<polygon class="st0" points="58.5,235.7 60.3,233.8 53,227.1 51.3,229.1 53.9,231.5 46.7,239.4 48.7,241.2 55.9,233.3 	"/>
	<polygon class="st0" points="67.8,239.6 64.6,243.8 61,241.2 64.2,236.9 62.1,235.3 54.1,245.9 56.3,247.5 59.5,243.3 63,245.9 
		59.8,250.2 62,251.8 69.9,241.2 	"/>
	<polygon class="st0" points="65.5,254.2 73,258.7 74.3,256.5 69.2,253.4 70.6,251 75.6,254 76.9,251.8 72,248.8 73.4,246.5 
		78.5,249.6 79.8,247.4 72.4,242.9 	"/>
	<path class="st0" d="M89.9,255.2l2.5,1.1c0.4,0.6,0.5,1.1,0.5,1.7l2.6,0.3c0-0.5,0-1-0.1-1.6c-0.2-0.9-0.7-2.3-1.9-2.8l-2.7-1.1
		c-0.5-0.2-1.1-0.2-1.5-0.2c-0.6,0.1-1.7,0.6-2.1,0.8c-0.4,0.3-0.7,0.7-0.9,1.1l-2.6,6.2c-0.2,0.4-0.3,0.9-0.2,1.4
		c0.1,0.5,0.5,1.6,0.9,2.1c0.3,0.4,0.7,0.7,1.2,1l2.7,1.1c1.2,0.5,2.6-0.1,3.4-0.6c0.4-0.3,0.8-0.6,1.2-1l-2.1-1.6
		c-0.5,0.4-1,0.7-1.6,0.8l-2.6-1.1c-0.4-0.5-0.5-1.1-0.5-1.1l2.6-6.1C89,255.4,89.6,255.2,89.9,255.2z"/>
	
		<rect x="91.9" y="261.6" transform="matrix(0.3205 -0.9473 0.9473 0.3205 -182.1421 272.0054)" class="st0" width="13.3" height="2.7"/>
	<polygon class="st0" points="103.7,260.5 107.1,261.4 104.5,271.7 107.1,272.4 109.8,262.1 113.2,263 113.9,260.5 104.3,258 	"/>
	<polygon class="st0" points="119.7,266.3 117.7,261.3 114.7,260.8 117.9,268.9 117,274.6 119.7,275 120.6,269.3 126.2,262.6 
		123.2,262.2 	"/>
	<path class="st0" d="M141.9,263.8c-0.4-0.2-0.9-0.4-1.5-0.4l-3.4-0.1c-0.6,0-1.1,0.2-1.5,0.4c-0.5,0.3-1.4,1.2-1.6,1.6
		c-0.3,0.4-0.4,0.9-0.4,1.4l-0.1,6.7c0,0.5,0.1,1,0.4,1.4c0.3,0.4,1.1,1.3,1.6,1.6c0.4,0.2,0.9,0.4,1.5,0.4l3.4,0.1
		c0.5,0,1.1-0.2,1.5-0.4c0.5-0.3,1.3-1.2,1.6-1.6c0.3-0.4,0.4-0.9,0.4-1.4l0.1-6.7c0-0.5-0.1-1-0.4-1.4
		C143.2,265,142.4,264.1,141.9,263.8z M141,273.4c-0.2,0.3-0.7,0.7-0.8,0.8l-3.2-0.1c-0.2-0.1-0.5-0.5-0.8-0.8l0.1-6.6
		c0.3-0.4,0.7-0.7,0.8-0.8l3.2,0.1c0.2,0.1,0.6,0.6,0.8,0.8L141,273.4z"/>
	<polygon class="st0" points="155.6,268 149.9,268.5 149.7,265.8 155.7,265.3 155.5,262.7 146.8,263.4 147.9,276.6 150.5,276.4 
		150.1,271.1 155.8,270.6 	"/>
	<path class="st0" d="M174.3,262.6c-0.1-0.5-0.3-0.9-0.7-1.3c-0.3-0.3-1.3-1-1.9-1.2c-0.5-0.2-1.1-0.2-1.5-0.1l-6.3,1.4l2.9,12.9
		l6.3-1.4c0.5-0.1,1-0.4,1.3-0.7c0.4-0.4,1-1.4,1.2-1.9c0.2-0.5,0.1-1,0-1.4L174.3,262.6z M172.5,270.5l-3.5,0.8l-1.8-7.9l3.5-0.8
		c0.4,0.1,0.7,0.3,1,0.7l1.4,6.2C172.9,270,172.7,270.3,172.5,270.5z"/>
	<path class="st0" d="M186.5,263.3c0.2-0.3,0.7-1.2,0.7-1.5c0.1-0.5,0.1-1-0.1-1.5l-0.6-1.8c-0.2-0.5-0.5-1-0.9-1.2
		c-0.3-0.2-1.1-0.6-1.5-0.8c-0.5-0.2-1.2-0.1-1.7,0l-6.1,2.1l4.2,12.6l2.6-0.9l-1.6-4.8l2-0.7l4.1,4l2.8-1c0,0-2.7-2.5-4.4-4.1
		C186.2,263.6,186.3,263.5,186.5,263.3z M184.2,261.9l-3.6,1.2l-1-2.9l3.6-1.2c0.2,0,0.6,0.2,0.7,0.3l0.6,1.9
		C184.5,261.4,184.3,261.9,184.2,261.9z"/>
	<polygon class="st0" points="195.2,263 194.1,260.5 199.4,258.1 198.3,255.8 193,258.1 191.9,255.7 197.4,253.2 196.3,250.8 
		188.4,254.4 193.8,266.5 201.8,262.9 200.7,260.6 	"/>
	<path class="st0" d="M202,247.8l2.6,13.8l2.5-1.4c-0.2-0.9-0.3-1.8-0.5-2.7l4-2.3l2,1.8l2.5-1.4l-10.6-9.2L202,247.8z M208.7,253.4
		l-2.6,1.5c-0.3-1.5-0.6-3-0.8-4.4L208.7,253.4z"/>
	<path class="st0" d="M217.4,237.8c0.4,2.2,0.8,4.4,1.2,6.6l-5.9-3.1l-2.4,1.7l7.9,10.7l2.2-1.6l-4.7-6.4l4.7,2.5l1.4-1
		c-0.3-1.7-0.7-3.5-1-5.2l4.7,6.4l2.2-1.6l-7.9-10.7L217.4,237.8z"/>
	<path class="st0" d="M236.2,234.6l-0.9-1c-0.7-0.8-2-1.2-3.1-0.6l-5.2,2.7c0,0-0.1,0-0.1-0.1l-0.8-0.9c0,0-0.1-0.8,0.1-1.1l2.2-2.1
		c0.7-0.1,1.2,0,1.8,0.2l1.4-2.2c-0.4-0.2-0.9-0.4-1.5-0.5c-0.9-0.2-2.4-0.3-3.4,0.6l-2.3,2.1c-0.4,0.4-0.6,0.9-0.8,1.3
		c-0.2,0.6-0.2,1.8-0.1,2.3c0.1,0.5,0.4,1,0.7,1.3l0.8,0.9c0.7,0.8,1.9,1.2,3.1,0.6c1.7-0.9,3.5-1.8,5.1-2.7c0,0,0.1,0,0.1,0.1
		l0.9,1c0,0,0,0.7-0.1,1.1l-2.5,2.3c-0.6,0.1-1.2-0.1-1.8-0.3l-1.3,2.3c0.5,0.3,1,0.4,1.5,0.5c0.9,0.2,2.4,0.3,3.4-0.6l2.5-2.3
		c0.4-0.4,0.7-0.9,0.8-1.3c0.1-0.5,0.2-1.8,0.1-2.3C236.8,235.4,236.5,234.9,236.2,234.6z"/>
	<polygon class="st0" points="70.2,41.5 64.2,32.7 75,38.2 78.1,36.1 67.8,21.2 64.8,23.3 70.9,32.1 60,26.6 56.9,28.7 67.2,43.6 	
		"/>
	
		<rect x="79.4" y="14.9" transform="matrix(0.8872 -0.4614 0.4614 0.8872 -1.8938 40.1987)" class="st0" width="3.7" height="18.1"/>
	<path class="st0" d="M91.4,23.9c0.2,0.6,0.6,1.2,1.1,1.6c0.6,0.4,2.1,1.1,2.8,1.3c0.6,0.1,1.4,0.1,2.1-0.1l4.3-1.6
		c0.4-0.2,0.7-0.5,1-0.8c0.1-0.1,0.2-0.3,0.3-0.4l0.3,0.5l3.4-1.2l-1.1-1.9c-0.4-0.6-0.7-1.2-0.8-1.5l-2.3-6.4L95.1,16l1.2,3.2
		l3.9-1.4l0.9,2.5c0.1,0.2-0.4,1.1-0.7,1.4l-4.1,1.5c-0.5-0.1-1.3-0.4-1.4-0.6l-3.1-8.6c0.1-0.6,0.5-1.2,0.7-1.5l4.1-1.5
		c1,0.2,1.5,0.6,2.2,1.2l2.9-2.1c-0.4-0.5-0.9-1-1.6-1.5c-1-0.7-2.8-1.7-4.6-1l-4.3,1.6c-0.7,0.2-1.3,0.7-1.7,1.2
		c-0.5,0.6-1.1,2.2-1.3,2.8c-0.2,0.7-0.1,1.3,0.2,2L91.4,23.9z"/>
	<polygon class="st0" points="115.8,20.9 114.5,13.7 120.4,12.6 121.8,19.8 125.4,19.1 122.1,1.3 118.5,2 119.8,9.1 113.9,10.2 
		112.6,3.1 108.9,3.7 112.2,21.5 	"/>
	<polygon class="st0" points="135.3,3.7 135.6,18.3 139.3,18.2 139,3.7 143.8,3.5 143.7,0 130.3,0.3 130.4,3.9 	"/>
	<path class="st0" d="M162.4,19.5c0.4,0.4,1.1,0.8,1.8,1l3.9,0.8c1.8,0.4,3.5-0.8,4.4-1.7c0.5-0.4,1-1,1.4-1.7l-3.2-1.6
		c-0.6,0.6-1.2,1.2-1.9,1.4l-3.7-0.8c-0.6-0.6-0.9-1.3-0.9-1.3l1.9-8.8c0.4-0.4,1.1-0.8,1.4-0.9l3.7,0.8c0.7,0.7,0.9,1.3,1.2,2.2
		l3.5-0.2c-0.1-0.7-0.3-1.4-0.6-2.1c-0.5-1.1-1.5-2.9-3.3-3.3l-3.9-0.8c-0.7-0.2-1.5,0-2,0.1c-0.8,0.3-2.2,1.3-2.6,1.7
		c-0.5,0.5-0.8,1.1-0.9,1.7l-1.9,8.9c-0.1,0.6-0.1,1.3,0.1,1.9C161,17.6,161.9,19,162.4,19.5z"/>
	
		<rect x="174.4" y="14.3" transform="matrix(0.3316 -0.9434 0.9434 0.3316 107.3641 183.8875)" class="st0" width="18.1" height="3.7"/>
	<polygon class="st0" points="195.3,31 201.8,17.9 206.1,20.1 207.7,16.9 195.6,11 194.1,14.1 198.4,16.3 192,29.3 	"/>
	<polygon class="st0" points="215.2,33.9 226.1,29 222.7,26.6 215.9,29.6 216.5,22.2 213.1,19.9 212.2,31.7 207.7,38.2 210.7,40.3 	
		"/>
</g>
</svg>
