<?xml version="1.0" encoding="utf-8"?>
<!-- Generator: Adobe Illustrator 25.4.1, SVG Export Plug-In . SVG Version: 6.00 Build 0)  -->
<svg version="1.1" id="Layer_1" xmlns="http://www.w3.org/2000/svg" xmlns:xlink="http://www.w3.org/1999/xlink" x="0px" y="0px"
	 viewBox="0 0 401.8 492.6" style="enable-background:new 0 0 401.8 492.6;" xml:space="preserve">
<style type="text/css">
	.st0{fill:none;}
	.st1{fill:#346CCF;}
	.st2{fill:#FFFFFF;}
</style>
<g>
	<path class="st0" d="M112.5,264.6c-2,0-3.7,1.6-3.7,3.7c0,2,1.6,3.7,3.7,3.7c2,0,3.7-1.6,3.7-3.7
		C116.2,266.3,114.6,264.6,112.5,264.6z"/>
	<path class="st0" d="M217.2,181.3c-1.7,17.4,7.9,23,7.9,23c1.6-18,24.8-31.6,24.8-31.6c5.7,31-5.1,43.9-7.5,61.4
		c-2.4,17.4,8.5,15,8.5,15s-3.1-0.7-3.3-9.2c-0.3-8.5,9.7-9,12.4-21.7c2.7-12.8,9.7-13.1,9.7-13.1s-10,0-12,8.5
		c-2,8.5-9.5,14.6-9.5,14.6c12.9-33.3,2.7-67.4,2.7-67.4c-7.3,11.3-10.6,6.9-19.5,16.5c-8.9,9.7-9.1,17.4-9.1,17.4
		s-1.6-1.9-1.3-13.6s-4.5-17.3-4.5-17.3c-2.4,12.2-8.1,14.2-15.3,20.8c-12,10.8-6.8,26.9-6.8,26.9
		C199.8,185.1,217.2,181.3,217.2,181.3z"/>
	<path class="st0" d="M146,227.5c0,0,5.5,10.9,5.9,20.6C151.9,248.2,157.2,236.1,146,227.5z"/>
	<path class="st0" d="M167,215.4c12.6,8,14.4,17.4,14.4,17.4s-1.6-24.2-1-26.4c0,0,4.8-0.4,6.2,5.3c0,0,1.6-4.9-3.8-11.3
		c-5.4-6.4-8-6.6-8-6.6s3.4,11.2,2.3,15.4c0,0-1.4-4.2-5.3-6.8c-4.5-3.1-11.1-5.5-14.9-11.8C156.8,190.7,154.4,207.4,167,215.4z"/>
	<path class="st0" d="M209.3,256.6c2.4,17.3,17.2,17.4,17.2,17.4s-9.8-2-13-16c-3.2-14,6.4-28.2,6.4-28.2S206.9,239.6,209.3,256.6z"
		/>
	<path class="st0" d="M123.8,297.7l-0.9-2.5c0,0-3.5,0.6-5.1,0.2l-0.1-1l-1.8,0.2l-0.3,3.1C115.6,297.7,122.4,298.5,123.8,297.7z"/>
	<path class="st0" d="M91,315.2c-6.3-1.2-11,1.1-11,1.1c8.6,8.2,18.8,5.9,18.8,5.9S97.3,316.4,91,315.2z"/>
	<path class="st0" d="M293,190.7c5.8,1.6,7.4,4.2,7.4,4.2s-3-17.8-13.6-26.8c0,0,2.2,6-1.8,12.4s-3.8,14.4-3.8,14.4
		S287.2,189.1,293,190.7z"/>
	<path class="st0" d="M240.7,305.1c-16-13.2-27.4-16.4-27.4-16.4s10.4,6.8,25.2,19.8c25.2,22.2,42.5,25,68.5,18.4
		c26-6.6,33-29.4,33-29.4s-28.4,23.6-50.9,25C266.4,323.9,256.6,318.3,240.7,305.1z"/>
	<path class="st0" d="M231.5,280.1c-41.3-3-31.5-42.3-31.5-42.3s-9.9,11.6-1.6,31.5c5.2,12.5,23.8,14.6,27.4,17
		c22.9,15.3,68.5,17.2,86.3,5.2c17.8-12,28-66.1,4.6-70.9S276.9,283.4,231.5,280.1z M280.2,263.1c0.7-0.2,1.8,0.7,2,2.2
		c0.2,1.5-6.5,2.6-6.9,0.8C275,264.3,280.2,263.1,280.2,263.1z M265.7,273c0,0,2.5,3.9,6.8,3.9c3.2,0,4.6-4.9,6.6-7.2
		c0.7-0.7,3.6-1.2,3.6-1.2s1.2,6.7-5.7,12c-6.9,5.3-13.3-5.3-13.3-5.3L265.7,273z"/>
	<path class="st0" d="M286,305.9c-47.5,0.8-62.9-18.4-62.9-18.4s8.8,21,63.1,21c54.3,0,56.3-41.1,56.3-41.1S333.5,305.1,286,305.9z"
		/>
	<path class="st0" d="M112.5,255.3c-7.2,0-13,5.8-13,13s5.8,13,13,13c7.2,0,13-5.8,13-13S119.7,255.3,112.5,255.3z M112.5,276.1
		c-4.3,0-7.7-3.5-7.7-7.7s3.5-7.7,7.7-7.7c4.3,0,7.7,3.5,7.7,7.7S116.8,276.1,112.5,276.1z"/>
	<path class="st1" d="M133.6,87.6c0,0-3.9-8.9,0.6-15.2c3.9-5.3,5.3-12.5,2.4-17.2c0,0-0.8,7.3-5.3,12.1
		C126.7,72.2,126.3,82.9,133.6,87.6z"/>
	<path class="st1" d="M311.2,72c5-2.3,12.1-10,12.9-21.1c1.4-18-7.1-24.5-7.1-24.5s2.4,19.3-7.4,30.9c-9,10.6-7.4,23.5-7.4,23.5
		S305.8,74.5,311.2,72z"/>
	<path class="st1" d="M375.1,43.5c16.2-15.6,7.2-33.9,0.5-37.2c0,0,4.4,16.1-10.4,30.1C351,49.8,360.6,73,360.6,73
		S359,59,375.1,43.5z"/>
	<path class="st1" d="M336.1,110.4c5.1-5.6,7.9-18.9-2.4-26.2c0,0,3.7,13.2-1.1,20.8s-4.7,17-0.6,21.1
		C332,126.1,331.1,116,336.1,110.4z"/>
	<path class="st1" d="M398.5,145.3c-10-28.8,0.9-39.1,0.9-39.1s-15.2,10.2-11.7,34.2c3.4,23.6,11.7,34,4.9,44.1
		C392.6,184.5,408.5,174.1,398.5,145.3z"/>
	<path class="st1" d="M378.3,223c0,0-18.3,6.2-16.8,29.2c1.5,23.1,1.4,31.2,1.4,31.2s12-12.8,11-35.1
		C372.9,224.7,378.3,223,378.3,223z"/>
	<path class="st1" d="M129,163.1c1.2,34.7,13.8,39.3,13.8,39.3s-18.8-6-23.8-38.5c0,0-8.2,12.8-3.4,33.4c0,0-5.4-12.6-20.8-27.8
		c0,0,11.6,21.4,14.6,31.8c3,10.4,14.2,19,15.4,28.4c1.2,9.4,2.3,15.1,7.6,21.4c4.6,5.4,10.6,8,8-4.8c-2.6-12.8-4.8-13.2-4.4-19
		c0,0,13.2,20.4,13.2,32.2s17,16.1,20.9-5.1c0,0-0.5,11-4.7,14.1c-3.7,2.8,16.9,19,18-9.3c0,0,6.1,27.6-16.5,18.5
		c0,0-8.1,8.9-6.5,13.3c1.6,4.4,14.1-5.9,14.1-5.9s-5.9,7.8-2.1,11.5c3.7,3.7,6.5-1.9,12.4-1.7c5.9,0.1,7.8,3.9,6.2,8.4
		c-2.6,7.4,6.1,1.4,9.4,5.9c3.3,4.5,4.5,22.2-2.4,30.7c-6.9,8.5,3,14.4,7.7,7.3c4.7-7.1,7.4-8.4,8.4-6.2
		c1.9,4.1-10.4,12.2-11.4,16.6c-1,4.1-4.3,11-7.3,11.6c2.5-0.2,11.9-0.6,17.6,0.6c6.6,1.4,8.8-3.1,9.2-7.8c0.4-4.7,3.5-11,14.5-13.9
		c11-2.9,3.2,9.1-2.1,11.8c-5.3,2.7-3.5,9.7,1.3,9.1s17.6-5.7,17.7-19.9c0.1-14.2-31.3-36.1-32.2-39.4c-0.9-3.3-0.8-7.1-9-10.5
		c0,0,14.7,2.3,31.2,21.8c16.5,19.5,31,27.1,41.6,34.2c10.7,7.1,13,20.6,13,20.6s-5.9-33.2,30.8-48.6c39.8-16.8,31.7-60.7,29.8-82
		c-1.9-21.3,15.3-28.2,16.3-49.1c0.5-9.8-4.9-18-7.1-24.5C365.4,164,366,159,366,159s-13.8,11.6-6.3,34.2c0,0-8.1,1.4-12.1-9.3
		c0,0-1.5,12.5,4.2,19.6c5.7,7.1,3.9,11.2-0.6,19.7c-4.5,8.5-4.1,25.1-4.1,25.1s-7.1-11-3.8-31.2c2.6-15.9,0.9-16.9-4.2-29.4
		c-9.9-23.8,19.4-23.1,21.6-42.5s-7.5-18.4-7.9-34.8c0,0-3.6,1.7-3,14.8s-9.7,12.1-10.7,28.8c-1,16.5-14.9,22.4-10.9,36.2
		c4,13.8,7,13.8,7.7,27.8c0.7,14,10,35.1,10,35.1s-11.3-15.2-13.2-24.8c-1.9-9.6-0.4-31.8-13.4-39.9c0,0,4.1-0.1,6,3
		c0,0-0.4-11.3-5.2-20.1s-2.4-15.2,0.3-21.6c2.7-6.4,2.3-18.4-4.5-29.3c-6.1-9.9,4.8-24.2,4.8-24.2s-9.9,0.3-19.4,29
		c-9.6,28.8-30.1,23.4-32,17.6c-1.9-5.9-3.1-20.8-3.1-20.8s-8.5,20.2-12.4,17.8c-3.9-2.4,8.8-35.3,17-34.6
		c8.2,0.7,2.6,18.2,2.6,18.2s15.8-20.4,12-42.9c0,0-10.1,18.6-20.2,12.2c-10.1-6.4-7.9-35.8-7.9-35.8S254,76.4,246,73.9
		s-14.1-25.6,6.4-43C265.1,20.1,275.9,15.6,275,0c0,0-11.1,17.8-32.7,21.4c-21.6,3.6-30.5,35.7-30.4,55.9c0.1,20.2-0.9,36.7-13.6,34
		c-12.6-2.8-19-17.7-17.4-26.9c1.6-9.2,5.6-11.2,5.6-11.2s-10.5,1.6-10.1,14.5c0.4,12.9,4.5,30.6-3.7,32.9s-9.2-10-16.9-11.8
		c0,0,11.3,19.4,6.5,34.5c-4.8,15-10.8,24.4-10.8,24.4s4.9-16.8-3.7-26.2c0,0,0.3,15.7-4.8,16.9c0,0,3-23.2-14-45.1
		c-17-22-5.2-48.7-5.2-48.7S105.4,77.6,113,108C120.6,138.3,127.8,128.3,129,163.1z M307,326.9c-26,6.6-43.3,3.8-68.5-18.4
		c-14.8-13-25.2-19.8-25.2-19.8s11.4,3.2,27.4,16.4c16,13.2,25.8,18.8,48.3,17.4c22.6-1.4,50.9-25,50.9-25S332.9,320.3,307,326.9z
		 M342.5,267.3c0,0-2,41.1-56.3,41.1c-54.3,0-63.1-21-63.1-21s15.4,19.2,62.9,18.4C333.5,305.1,342.5,267.3,342.5,267.3z M285,180.5
		c4-6.4,1.8-12.4,1.8-12.4c10.6,9,13.6,26.8,13.6,26.8s-1.6-2.6-7.4-4.2c-5.8-1.6-11.8,4.2-11.8,4.2S281,186.9,285,180.5z
		 M316.6,220.6c23.4,4.8,13.2,58.9-4.6,70.9c-17.8,12-63.4,10.1-86.3-5.2c-3.6-2.4-22.1-4.5-27.4-17c-8.3-19.9,1.6-31.5,1.6-31.5
		s-9.8,39.3,31.5,42.3C276.9,283.4,293.2,215.8,316.6,220.6z M213.5,258c3.2,14,13,16,13,16s-14.7,0-17.2-17.4
		c-2.4-17,10.6-26.8,10.6-26.8S210.3,244,213.5,258z M201.1,184.8c7.2-6.5,12.9-8.5,15.3-20.8c0,0,4.8,5.6,4.5,17.3
		s1.3,13.6,1.3,13.6s0.2-7.8,9.1-17.4c8.9-9.7,12.2-5.2,19.5-16.5c0,0,10.3,34.1-2.7,67.4c0,0,7.5-6.1,9.5-14.6c2-8.5,12-8.5,12-8.5
		s-7.1,0.4-9.7,13.1c-2.7,12.8-12.6,13.2-12.4,21.7c0.3,8.5,3.3,9.2,3.3,9.2s-10.9,2.4-8.5-15c2.4-17.4,13.2-30.4,7.5-61.4
		c0,0-23.2,13.6-24.8,31.6c0,0-9.6-5.6-7.9-23c0,0-17.4,3.8-22.9,30.4C194.3,211.7,189.2,195.6,201.1,184.8z M156.8,190.7
		c3.8,6.3,10.4,8.7,14.9,11.8c3.9,2.7,5.3,6.8,5.3,6.8c1.2-4.2-2.3-15.4-2.3-15.4s2.6,0.2,8,6.6c5.4,6.4,3.8,11.3,3.8,11.3
		c-1.4-5.7-6.2-5.3-6.2-5.3c-0.6,2.2,1,26.4,1,26.4s-1.8-9.4-14.4-17.4C154.4,207.4,156.8,190.7,156.8,190.7z M151.9,248.2
		c-0.4-9.7-5.9-20.6-5.9-20.6C157.2,236.1,151.9,248.2,151.9,248.2z"/>
	<path class="st1" d="M97,146.9c0,0-6.3-12.2-11.6-15.8c-5.3-3.6-8.5-9.5-8.5-9.5s-1.2,4.3,2.1,12.6C82.4,142.6,97,146.9,97,146.9z"
		/>
	<path class="st1" d="M22.6,89.3c-4.4,29.7,17.8,38.6,17.8,38.6s-12.2-12.4-10.3-37.7c2.1-27-8.4-29.6-8.4-29.6S26.3,64.6,22.6,89.3
		z"/>
	<path class="st1" d="M92.9,221.4c-6.2-8,9.2-37.5-18.8-63.5c-14-13-19.9-19.1-19.9-19.1c0,17.3,11.7,12.9,19.3,44
		S92.9,221.4,92.9,221.4z"/>
	<path class="st1" d="M32.7,190.9c5.5,21,11.5,25.7,17.4,27.8c6,2.1,6.9,4,6.9,4s-1.9-8.9,0.3-9.7c2.1-0.8,5.6,0.4,5.6,0.4
		c1.3-5.3-5.3-13.3-5.3-13.3c6,1.6,18.5,16.9,18.5,16.9s-6.9-10.4-11.3-21.8c-4.4-11.4-9.5-7.7-14.6-12.1s-7.5-13.6-7.5-13.6
		c-1.3,11.1,7.1,25.7,7.1,25.7c-6.4-0.9-14.4-11.6-17.2-19.7c-2.8-8.1-13-7.9-13-7.9S27.2,169.9,32.7,190.9z"/>
	<path class="st1" d="M19,199.9c0.7-9.8-2.9-16.6-8.6-23.8C4.7,169,0.2,150.8,0.2,150.8s-1.8,21.7,5.1,30.1
		C11.4,188.3,19,199.9,19,199.9z"/>
	<path class="st1" d="M2.2,219.2c-8.6,20,11.4,14.8,11.4,14.8C1.2,230.4,2.2,219.2,2.2,219.2z"/>
	<path class="st1" d="M27.4,296.2c4.4,14.4,36.9,30.1,36.9,30.1s-3.1-8.1-7-12.1c-3.9-4-5.9-10.5-5.9-10.5c1.2,1.8,4.6,1.1,4.6,1.1
		s-0.5-4.4,0-14c0.5-9.6,8.3-8.6,8.3-8.6s-9-6.6-10.2-20.6c-1.2-14-6.4-18.6-6.4-18.6s1.6,5.4-0.8,9.9s-2.1,12.3-2.1,12.3
		s-1.9-8.9-2-22.9c-0.1-14-10.5-19.7-10.5-19.7s4.6,15,1.4,26.6s-0.5,21.6-0.5,21.6c-3.3-1.7-4.3-9.2-4.3-9.2
		c-1.9,10.3,0.7,18.6,0.7,18.6c-4.2-1.4-4.5-8.9-4.5-8.9s-1.4,2.6-1.3,6.4c0.1,9.5,8.5,16.6,7.3,18
		C29.9,297.2,27.4,296.2,27.4,296.2z"/>
	<path class="st1" d="M22.7,261.9c-3.5-5-9.4-2.5-9.4-2.5c10.1,3.5,9.4,11.7,9.4,11.7S26.1,266.7,22.7,261.9z"/>
	<path class="st1" d="M27.8,318.5c6.9,9.2,23.6,9.3,23.6,9.3C44.1,315.8,27.8,318.5,27.8,318.5z"/>
	<path class="st1" d="M70.4,323c0,0,0.6,6.1,3.4,10.7c2.8,4.7,3.8,11.5,3.8,11.5s3.5-9.5-1.1-16.8C74.3,325,70.4,323,70.4,323z"/>
	<path class="st1" d="M54.8,338.9c10.7,7.2,14.2,21.4,14.2,21.4s2.1-11.8-2.5-17.4C61.9,337.2,54.8,338.9,54.8,338.9z"/>
	<path class="st1" d="M94.8,367.7c-2-2.5-5.1-3.8-5.1-3.8s2.1,1.9,1.5,7.4C90.6,375.9,99.3,373.4,94.8,367.7z"/>
	<path class="st1" d="M122,160.1c0,0,0.3-6.9-4.4-11.8s-6.5-8.4-6.5-8.4s-1.3,5.6,4.6,11.8S122,160.1,122,160.1z"/>
	<path class="st1" d="M185.4,309.3c1-3.5,0.6-5.3-0.8-5.7c-1.6-0.4-5.7,1.2-6.7,7.1C177,316.6,183.6,315.4,185.4,309.3z"/>
	<path class="st1" d="M198.3,323.1c0.5-9.5-1.5-10.3-3.8-10.2c-2.3,0.1-3.7,4.9-3.9,10.3c-0.1,5.4-2.1,7.3-0.9,8.3
		C191,332.6,197.9,332.6,198.3,323.1z"/>
	<path class="st1" d="M198.8,360c0.7-1.4,0.5-3.4-0.4-4.1c-1.7-1.3-6.6,1.3-5.8,5.6C193.4,365.5,197.1,363.2,198.8,360z"/>
	<path class="st1" d="M277,280.5c6.9-5.3,5.7-12,5.7-12s-2.9,0.5-3.6,1.2c-2,2.2-3.4,7.1-6.6,7.2c-4.3,0.1-6.8-3.9-6.8-3.9l-2.1,2.3
		C263.7,275.3,270.1,285.9,277,280.5z"/>
	<path class="st1" d="M282.3,265.3c-0.2-1.5-1.3-2.4-2-2.2c0,0-5.2,1.2-4.8,3C275.7,268,282.5,266.8,282.3,265.3z"/>
	<path class="st2" d="M78.6,223.5c-1.8-0.5-5.9-6.3-9.5-5.9c-6.7,0.7-4.1,9.7-6.1,10.7c-2.1,1-12.2,9.7-3.1,19.8
		c0,0,2.3-12.2,18.2-12.2s41.7,3.6,41.7,3.6s-5.5-23.8-11.9-25.5c-2-0.5-14.5-2.9-14.3,1.7c0.2,4.6,1.5,12,0,11.9
		s-9.9-13.3-12.5-13.3s-2.2,4.7-1.4,6.1C80.4,221.8,80.4,224,78.6,223.5z"/>
	<path class="st2" d="M75.3,257.8c1,3.9,12.2,7.1,12.2,7.1s0.8-6.8-2.8-10.6c-3.6-3.8-8.7-3.6-11.8-4.3c-3.1-0.7-5.2-5.2-5.2-5.2
		l-2,1.7C65.7,246.5,74.3,253.9,75.3,257.8z"/>
	<path class="st2" d="M87.5,277.6c3,0.1,2.8-5.5,1.7-7.9c-1.1-2.4-11.2-6.7-15.7-6.8c-4.5-0.1-8.3-8.1-8.3-8.1
		C63.7,266.3,84.5,277.5,87.5,277.6z"/>
	<path class="st2" d="M112.5,252.5c-8.7,0-15.8,7.1-15.8,15.8s7.1,15.8,15.8,15.8s15.8-7.1,15.8-15.8S121.3,252.5,112.5,252.5z
		 M112.5,281.3c-7.2,0-13-5.8-13-13s5.8-13,13-13c7.2,0,13,5.8,13,13S119.7,281.3,112.5,281.3z"/>
	<path class="st1" d="M112.5,260.6c-4.3,0-7.7,3.5-7.7,7.7s3.5,7.7,7.7,7.7c4.3,0,7.7-3.5,7.7-7.7S116.8,260.6,112.5,260.6z
		 M112.5,272c-2,0-3.7-1.6-3.7-3.7c0-2,1.6-3.7,3.7-3.7c2,0,3.7,1.6,3.7,3.7C116.2,270.4,114.6,272,112.5,272z"/>
	<path class="st2" d="M81.7,285.2v6.3c0,1.4,1.2,2.6,2.6,2.6h3.3c1.4,0,2.6-1.2,2.6-2.6v-3.7c0-1.4-1.2-2.6-2.6-2.6H81.7z"/>
	<path class="st2" d="M149.4,291.3c1.6,0,2.9-1.3,2.9-2.9v-5.2c0-1.6-1.3-2.9-2.9-2.9h-7.3c-0.1,0-0.2,0.1-0.2,0.2v7.8
		c0,1.6,1.3,2.9,2.9,2.9H149.4z"/>
	<path class="st2" d="M132.4,272l-1.1,0.6c-0.3,0.1-0.4,0.4-0.5,0.7c-2.3,8.7-10.7,15-20.4,13.9c-8.7-0.9-15.8-8-16.8-16.7
		c-1.1-9.7,5.2-18.1,13.9-20.5c0-0.9-0.1-2.6-1.3-3.3c-1.7-1,2.3-5.4,5.2-3.2c1.9,1.5,2.1,4.1,2,5.9c1.8,0.1,3.6,0.4,5.2,1l-0.7-1
		c0,0,1.1-8.9-5.5-8.9c-12.9,0-20.6,7.3-22.7,9.5c-0.4,0.4-0.5,0.9-0.4,1.4l6,37.4c0.1,0.3,0.5,0.5,0.7,0.3c0.7-0.5,2.1-1.2,4.5-1.2
		c3.7,0,3.6,2.8,12.6,2.8c9.1,0,11.3-2.5,13.6-1c2.3,1.5,0.5,3.4,4.5,3.3c4-0.1,4.1-3.7,3.6-7.7C134.4,281.2,132.4,272,132.4,272z"
		/>
	<path class="st2" d="M107.9,294.8l0.9-2.2c-3.5-0.6-6-1.5-7.1-2c-0.5-0.2-1,0-1.3,0.4l-2.6,3.5c-0.3,0.5-0.3,1.1,0.2,1.5
		c9.7,8,24.5,4.9,29.3,3.6c0.7-0.2,1-1.1,0.6-1.7l-3.5-4.5c-0.2-0.3-0.6-0.4-1-0.4c-4.3,0.5-8.2,0.4-11.5,0l-3,4.1
		c-3.7,0-5-1.4-5-1.4l1-1.7C106,294.8,107.9,294.8,107.9,294.8z M115.9,294.6l1.8-0.2l0.1,1c1.6,0.4,5.1-0.2,5.1-0.2l0.9,2.5
		c-1.5,0.9-8.2,0-8.2,0L115.9,294.6z"/>
	<path class="st2" d="M127,325.6l0.3-3.3l-20.6-0.3l-7.6-7.9l-17.5-5.2l-1.9,2l-4.6,0l-9.9-7.4c-0.4,4.7-0.1,8.5-0.1,8.5
		s8,9.7,27,14.3S127,325.6,127,325.6z M80,316.3c0,0,4.7-2.3,11-1.1c6.3,1.2,7.8,7.1,7.8,7.1S88.6,324.6,80,316.3z"/>
	<path class="st2" d="M113.1,306.2c-26.8-1.3-42.4-17.8-42.4-17.8c-2.9,2.4-4.4,7.1-5.1,11.6l10.6,8l2.8,0.1l2.1-2.1l19.4,5.5
		l7.6,7.6l20.7,0.5c8-0.4,15.8-1.6,18.6-2c0.7-0.1,1.3-0.5,1.7-1l5.9-7.8c0.9-1.1,0.7-2.8-0.4-3.7l-4.3-3.5c-0.8-0.7-2-0.8-2.9-0.3
		C143.9,303.2,133.9,307.2,113.1,306.2z"/>
	<path class="st2" d="M192.6,379l2.3-1c0.3-0.1,0.4-0.6,0.1-0.8c-2.8-1.9-13.2-9.6-12-21.6c1-9.3,1.7-15.5,2.1-18.6
		c0.2-1.2-0.5-2.4-1.7-2.9c-3.3-1.4-9.7-5-12.1-12.8c-2.6-8.4-1.2-12.6-0.3-14.1c0.3-0.5,0.1-1-0.3-1.3l-2-1.3
		c-0.5-0.3-1.1-0.2-1.4,0.3l-8.4,14.7c-0.3,0.5-0.1,1,0.3,1.3c2.8,1.7,11.8,8.5,9.7,23c-1.8,12.1-9.2,12.9-12.9,12.5
		c-1.1-0.1-2.1,0.8-2.1,1.9c0.1,3.7-0.1,10.7-2.2,13c0,0,11.3-4,15.3,5.1c0,0,7.8-7.3,13.6,0C180.6,376.4,189.9,373.9,192.6,379z"/>
	<path class="st2" d="M113.9,369.7c1.3,0.9,4.8,0.5,5.5-1c1.7-3.4,4.1-9,11.8-9.1c12.1-0.2,9.5,7.3,15.9,9.1s0.8-16.4,6.9-16.3
		c11,0.1,11.6-11.9,10.3-17.4c-1.3-5.5-9.5-12.3-13.5-11.5c-4,0.9-2,19.9-11.7,18.6c-15.2-2-20.2,3.4-27.3,14
		C107,363.3,110.8,367.6,113.9,369.7z"/>
	<path class="st2" d="M147,391.4c0.4-0.7,0.6-1.5,0.6-2.2c0.2-5.2-1-26.6-17-26.6c-4.5,0-6,3.5-6.4,4.4
		c-3.6,7.2-22.3,38.4-76.2,49.6C48,416.6,119.2,439.6,147,391.4z"/>
	<path class="st2" d="M164.4,389.8c0.9-2,0.3-16.9-7.3-16.1c-3.6,0.4-6.8,0.4-6.8,11.8C150.2,396.5,162.9,393,164.4,389.8z"/>
	<path class="st2" d="M173.8,391.2c1.1-0.9,1.3-1.5,1.7-3.1c1.5-5.8,2.2-11.6-0.7-11.6s-7.7,1.2-8.1,8.8c-0.1,1.7-0.1,3.6,0.5,4.6
		C168.7,392.1,172.1,392.5,173.8,391.2z"/>
	<path class="st2" d="M178.4,389.4c0,4.6,4.6,5,7.7,4.1c2.2-0.7,2-3.7,2.3-5.4c1.1-5,0.2-9-2.8-9S178.5,380.6,178.4,389.4z"/>
	<path class="st2" d="M195.6,391.7c1.5-2.9,2.3-9.2,0.5-9.6s-5.7,0.8-5.6,7.4C190.6,396,194.1,394.7,195.6,391.7z"/>
	<path class="st1" d="M161.8,281.1c1-0.7,2.4-6.1,0.3-7.3c-0.2-0.1-1.8-0.7-2.1,0.1c-0.3,0.8,0.6,4.3,0.2,5.7
		C160,280.9,160.8,281.8,161.8,281.1z"/>
	<path class="st1" d="M278.5,370.4c5.1,16,21.6,25.1,24,25.7c3.3,0.8-18.9-39.7-33.9-39.7c-18,0-23.4,23.5-42.9,24.7
		c-10.6,0.6-19.9-2.9-19.9-2.9l4.3,15.6c23.6,8.2,32.8-6.6,39.1-18.2S273.4,354.4,278.5,370.4z"/>
	<path class="st2" d="M273.5,368.8c-14.6-12-25.4,23.6-22.6,27.3c33.3,45.4,100.6,23.4,100.6,23.4
		C285.8,406.9,275.5,370.4,273.5,368.8z"/>
	<path class="st2" d="M145.3,434.7c0,0,15.1,6.5,16.5-8.3l-20.1-18.8C141.7,407.5,138.3,426.7,145.3,434.7z"/>
	<path class="st2" d="M164.9,427.4c3.7,4.7,6,0,6,0s-0.8-5.1-3-5.3C165.7,421.9,164.9,427.4,164.9,427.4z"/>
	<path class="st2" d="M177.8,426.5c0,0-1.7-6-4.2-5.5c-2.4,0.5-1.1,5.5-1.1,5.5C175.1,429,177.8,426.5,177.8,426.5z"/>
	<path class="st2" d="M220.2,422.6c-2.4-1.1-4.5,1.6-4.5,1.6c1.1,4.3,4.5,3.7,4.5,3.7S222.6,423.7,220.2,422.6z"/>
	<path class="st2" d="M226.1,430.1c0,0,2.6-2.2,1.5-5.6c0,0-6.2,0.4-6.6,3.1S226.1,430.1,226.1,430.1z"/>
	<path class="st2" d="M235.8,437.7c9.3-0.7,17.2-21,10.9-31.2l-18.8,24.1C227.9,430.6,226.5,438.4,235.8,437.7z"/>
	<path class="st1" d="M245.9,443.1c-20.2,0-24.5-15.7-52.8-15.7c-28.3,0-25.6,15.6-49.6,15.6c-20,0-23.5-19.4-23.5-19.4l-19.5,4.5
		c0,0,8.3,27.5,42.1,27.5s28.1-12.9,49.5-12.9c21.4,0,28.4,15.4,57.2,15.4c23.7,0,40.5-28.5,40.5-28.5l-19.7-7.2
		C270.1,422.4,266.1,443.1,245.9,443.1z"/>
	<path class="st1" d="M169.9,452.7c-11.1,7-37.2,5.3-37.2,5.3s9.8,13,21.3,14C163.2,472.8,172.4,451.1,169.9,452.7z"/>
	<path class="st1" d="M213.7,450.9c-1.3,0.7,8.4,21.2,12.9,22.9c10.5,3.9,22.4-13.3,21.3-13.3C228.2,460.3,215.7,449.8,213.7,450.9z
		"/>
	<path class="st1" d="M203.1,448.9c-6.5,0-9.4,2-9.4,2s-5.7-3.1-11.9-1.3c-2.5,0.7-20.7,20.1-20.7,26.2c0,23.1,33.3,15.6,33.3,15.6
		s28.5,6.2,28.5-13.5C222.7,471.8,209.5,448.9,203.1,448.9z"/>
	<path class="st2" d="M321.9,336c-2.5,0-13.3,4.8-13.3,16.7c0,1.8,19.9,22.6,25.9,20.7c2.1-0.7,6.7-8.7,11-10.8
		C349.1,360.8,324.4,336,321.9,336z"/>
	<path class="st2" d="M348,366c-2.9,0-4.9,1.7-6.1,2.8s-3.9,5.1-1.9,7.2c2,2.1,42.2,21.2,49.1-15.3c0,0-10.4,3.5-17.6,7.7
		C364.4,372.8,351,366,348,366z"/>
	<path class="st2" d="M354.5,345.2c3.9-3.6,5.7-3.1,5.6-5c-0.1-1.9-14.3-16.9-15.6-16.8c-0.7,0.1-4,3.2-8.2,5.8
		c-4,2.4-9.2,3.8-9.2,4.9s16.8,18.8,21,18.3S350.6,348.8,354.5,345.2z"/>
	<path class="st2" d="M360.6,302.3l-3.9,7.1c0,0,36.4,23.4,27.7,34c-7.6,9.1-19.5,0.5-22.4,1.4c-2.9,0.9-9.1,5.4-9,8.3
		c0,0-0.1,1.8,1.1,2.5c1.3,0.7,24,13.4,33.9,1.8C397.9,345.8,400.9,326.8,360.6,302.3z"/>
	<path class="st2" d="M375.2,343.3c2.1,4.1,8.1-0.7,7.1-3.2c-1-2.5-13.6-20.2-28.4-27.3c-0.7-0.3-1.3,1.6-2.4,3.3
		c-0.9,1.5-2.5,2.7-1.9,3.3C350.8,320.9,373.1,339.2,375.2,343.3z"/>
</g>
</svg>
